<?xml version="1.0" standalone="no"?>
<!DOCTYPE svg PUBLIC "-//W3C//DTD SVG 20010904//EN"
 "http://www.w3.org/TR/2001/REC-SVG-20010904/DTD/svg10.dtd">
<svg version="1.0" xmlns="http://www.w3.org/2000/svg"
 width="1453.000000pt" height="1453.000000pt" viewBox="0 0 1453.000000 1453.000000"
 preserveAspectRatio="xMidYMid meet">
<metadata>
Created by potrace 1.11, written by Peter Selinger 2001-2013
</metadata>
<g transform="translate(0.000000,1453.000000) scale(0.100000,-0.100000)"
fill="#000000" stroke="none">
<path d="M11983 14278 c-158 -256 -493 -796 -581 -935 l-52 -83 195 0 195 0 0
-340 c0 -309 5 -374 24 -324 3 9 15 14 27 12 26 -4 90 -89 72 -95 -17 -6 -16
-61 2 -113 17 -48 20 -90 6 -90 -11 0 -41 57 -41 79 -1 9 -7 27 -14 40 -12 21
-14 22 -20 6 -9 -25 -27 -6 -42 43 -11 35 -12 34 -13 -40 -1 -68 1 -79 19 -88
11 -6 20 -15 20 -21 0 -6 -9 -13 -20 -16 -19 -5 -20 -14 -20 -227 l0 -221
-188 -220 c-104 -121 -272 -310 -373 -420 -101 -110 -438 -477 -750 -815 -777
-845 -720 -781 -707 -797 14 -18 2 -29 -15 -14 -11 9 -29 -6 -89 -72 -79 -86
-88 -106 -92 -203 -5 -90 -56 -160 -121 -166 -27 -3 -30 0 -27 22 l3 25 -22
-28 c-19 -25 -23 -27 -43 -14 -20 13 -38 -5 -398 -397 -262 -285 -373 -413
-365 -419 8 -6 6 -7 -5 -3 -11 3 -24 -4 -36 -19 -11 -13 -69 -77 -129 -142
-61 -65 -195 -210 -298 -323 -104 -113 -261 -283 -349 -379 -89 -96 -174 -189
-189 -207 l-28 -34 58 0 c32 0 78 -5 103 -11 25 -6 74 -12 110 -13 105 -4 249
-25 279 -41 18 -9 42 -12 64 -8 51 8 87 -3 87 -27 0 -18 -5 -19 -39 -14 -34 5
-41 3 -51 -17 l-13 -23 -13 26 c-9 17 -26 29 -46 33 -18 4 -39 12 -45 17 -9 7
-18 7 -28 -2 -12 -10 -23 -9 -54 3 -38 16 -67 14 -107 -5 -17 -8 -28 -6 -49 8
-14 9 -48 18 -73 19 -26 1 -83 8 -128 15 l-81 14 -69 -75 c-39 -41 -97 -104
-130 -141 -57 -63 -78 -79 -86 -59 -1 5 -39 49 -84 98 -44 48 -105 116 -135
150 l-54 62 -60 1 c-68 0 -100 13 -75 30 8 6 35 9 58 7 l44 -5 -29 32 c-16 17
-73 79 -127 138 -54 59 -106 110 -117 113 -10 4 -19 14 -19 23 0 9 -37 58 -82
107 -45 50 -187 207 -317 349 -129 143 -253 280 -274 305 -42 48 -73 59 -80
29 -4 -12 -14 -18 -34 -18 -27 0 -28 2 -30 51 -1 28 -13 73 -26 102 -28 60
-254 314 -301 337 -17 9 -33 26 -37 42 -4 15 -28 50 -54 77 -26 28 -54 59 -62
71 -8 11 -25 20 -38 20 -27 0 -61 42 -50 60 8 13 -187 228 -203 222 -7 -2 -12
5 -12 15 -1 29 -330 389 -341 372 -11 -18 -31 1 -25 24 7 27 -169 225 -199
223 -14 -1 -20 5 -20 19 0 12 -17 41 -37 65 -36 44 -37 44 -57 26 -16 -15 -21
-16 -21 -5 0 8 5 20 12 27 8 8 -6 30 -58 89 -161 180 -207 228 -225 235 -10 4
-19 14 -19 22 0 8 -53 73 -117 143 -65 71 -239 263 -387 427 l-269 297 -47
-46 c-27 -26 -54 -45 -61 -43 -22 7 -35 66 -29 131 5 51 3 63 -12 76 -10 8
-18 27 -18 41 0 27 -12 41 -315 375 -99 109 -312 344 -473 522 l-292 324 0
-352 0 -352 45 6 c41 6 45 5 51 -17 8 -34 1 -89 -13 -93 -7 -3 -22 12 -35 31
-13 20 -27 34 -33 32 -14 -5 -7 -39 12 -53 18 -14 10 -43 -12 -43 -13 0 -15
-316 -15 -3035 l0 -3035 24 0 c27 0 56 -24 56 -46 0 -10 -12 -14 -40 -14 l-40
0 0 -1840 0 -1840 -560 0 c-547 0 -560 0 -580 20 -27 27 -25 39 10 51 l30 11
0 145 c0 81 -5 153 -10 164 -6 11 -8 25 -3 31 11 19 16 95 5 83 -6 -5 -60 -75
-121 -154 -78 -100 -109 -147 -101 -155 16 -16 12 -28 -7 -18 -15 8 -64 -53
-328 -415 -171 -234 -314 -434 -319 -443 -6 -14 23 -57 142 -203 82 -102 152
-184 155 -181 10 10 57 -9 57 -23 0 -11 -7 -14 -21 -10 -14 4 -18 2 -11 -6 5
-7 83 -104 173 -216 90 -112 177 -220 192 -240 16 -20 33 -35 38 -34 5 2 8 -1
6 -7 -2 -9 133 -189 143 -190 3 0 4 90 3 200 -2 171 -5 203 -19 217 -14 15
-15 18 -1 28 9 6 17 27 19 46 l3 34 913 3 912 2 0 2743 0 2744 -25 11 c-32 15
-32 39 0 54 l25 11 0 263 0 262 -31 11 c-44 15 -56 14 -38 -4 9 -9 25 -17 37
-18 18 -1 22 -7 22 -38 0 -32 -5 -41 -34 -58 -18 -12 -43 -21 -55 -21 -18 0
-21 5 -19 40 1 25 7 44 17 49 13 8 13 12 -2 35 -10 14 -19 43 -20 64 -2 36 -1
37 32 34 18 -1 40 3 47 9 8 6 21 9 29 5 11 -4 15 1 15 20 0 22 -3 24 -22 18
-13 -3 -30 -13 -39 -20 -28 -25 -39 -16 -39 31 0 41 2 45 24 45 14 0 36 -4 50
-10 32 -12 33 -2 8 51 -13 30 -21 37 -38 33 -28 -7 -50 19 -30 36 9 6 20 9 26
5 6 -4 10 7 10 27 l1 33 24 -30 25 -30 0 1643 c0 903 3 1642 8 1641 4 0 76
-78 160 -172 84 -95 178 -200 210 -234 31 -34 142 -157 245 -272 121 -134 193
-208 202 -205 9 4 17 -4 21 -23 7 -26 43 -69 283 -331 48 -53 101 -100 120
-108 25 -11 31 -17 23 -27 -11 -13 -5 -21 513 -593 100 -109 351 -388 559
-619 208 -231 390 -431 404 -444 15 -13 38 -39 52 -57 14 -17 212 -238 440
-490 228 -252 435 -481 460 -509 24 -27 69 -77 100 -110 105 -114 225 -248
232 -258 5 -8 13 -6 26 6 24 22 44 21 91 -3 39 -19 39 -19 34 1 -5 19 -2 20
123 16 71 -3 140 -9 154 -14 14 -5 130 -9 257 -9 162 1 234 -2 237 -10 2 -6
23 -10 47 -9 31 1 47 8 62 26 10 13 52 60 92 104 411 454 445 495 445 530 0
33 2 35 33 36 29 0 55 26 295 295 208 234 259 295 245 300 -35 11 -48 21 -48
40 0 14 6 18 23 16 26 -4 28 5 5 30 -12 13 -13 22 -6 29 16 16 30 4 54 -43
l21 -41 23 24 c13 13 125 139 250 279 125 140 246 275 269 300 213 235 366
410 366 419 0 6 -4 11 -9 11 -5 0 -14 15 -22 33 -7 17 -28 54 -46 82 -18 27
-33 55 -33 62 0 6 11 25 25 41 21 25 25 40 25 90 0 63 8 78 50 84 22 3 25 -1
30 -39 4 -23 11 -48 18 -55 6 -8 9 -24 6 -35 -5 -18 -2 -21 15 -16 11 3 23 14
26 24 9 27 85 89 110 89 21 0 45 -17 45 -32 0 -4 -7 -8 -15 -8 -25 0 -17 -30
11 -40 35 -14 36 -13 29 10 -5 15 -2 20 13 20 20 0 380 393 394 431 4 10 12
19 17 19 6 0 53 48 106 106 109 121 108 114 11 170 -34 20 -71 45 -84 57 -12
11 -38 30 -56 41 -19 12 -67 43 -108 71 -119 80 -212 135 -230 135 -18 0 -36
45 -24 57 3 4 20 -3 36 -15 36 -27 50 -28 43 -2 -7 25 -2 25 55 -4 66 -34 86
-51 78 -65 -6 -9 -11 -9 -21 -1 -25 20 -85 48 -85 39 0 -5 12 -16 28 -26 15
-10 32 -23 37 -29 6 -7 36 -26 68 -43 32 -17 73 -43 91 -59 18 -16 60 -44 92
-62 32 -18 75 -47 94 -64 19 -18 50 -38 68 -45 31 -13 35 -12 54 7 21 20 21
20 1 46 -19 23 -22 24 -42 10 -12 -9 -28 -13 -36 -10 -19 7 -20 56 -2 56 16 0
40 47 32 60 -3 5 -11 7 -18 4 -7 -2 -22 16 -35 43 -28 60 -28 63 2 63 25 0 36
28 36 95 0 51 -9 65 -41 65 -42 0 -58 34 -30 64 12 12 21 28 21 34 0 7 4 12 9
12 5 0 16 3 25 6 11 4 20 -3 28 -23 7 -15 23 -39 35 -53 17 -19 23 -37 23 -74
0 -39 3 -47 12 -38 18 18 25 15 32 -14 12 -45 -1 -64 -36 -57 -25 5 -29 3 -26
-12 2 -11 16 -22 36 -27 40 -11 41 -23 1 -43 -29 -16 -38 -53 -11 -48 15 4 25
-38 20 -84 l-4 -37 62 69 c41 45 60 73 54 79 -20 20 -11 37 17 34 23 -2 37 7
78 52 27 31 196 219 375 419 290 324 325 360 328 335 2 -15 13 -35 25 -44 l21
-17 -22 -14 -22 -14 0 -711 c0 -620 2 -713 15 -724 8 -7 15 -17 15 -22 0 -6
-7 -8 -15 -4 -11 4 -15 -1 -15 -18 0 -25 31 -36 225 -81 262 -61 300 -75 203
-75 -71 0 -175 22 -262 54 -37 14 -90 32 -118 41 l-51 15 6 -1535 c4 -1189 8
-1539 17 -1550 7 -8 20 -15 30 -15 10 0 21 -7 24 -16 4 -10 1 -14 -6 -11 -7 2
-18 -3 -25 -12 -10 -14 -13 -13 -22 9 -7 17 -10 -211 -10 -722 -1 -488 2 -749
9 -753 6 -3 10 -15 10 -26 0 -11 -4 -17 -10 -14 -7 4 -10 -76 -10 -233 0 -208
2 -241 16 -246 8 -3 12 -10 9 -16 -4 -6 -11 -8 -16 -5 -5 4 -9 -199 -9 -524 0
-414 3 -530 13 -534 10 -4 10 -7 0 -18 -20 -20 -16 -25 21 -27 23 -2 36 3 40
13 9 26 28 17 24 -12 -3 -26 -6 -28 -50 -28 l-48 0 0 -267 0 -268 -580 0 -580
0 0 124 c0 101 -3 125 -15 130 -8 3 -15 16 -15 29 0 31 -10 40 -27 25 -25 -20
-22 -3 7 42 16 25 33 50 38 55 12 16 8 65 -5 65 -11 0 -33 30 -33 44 0 14 30
5 39 -12 8 -13 10 -7 11 31 0 42 -3 49 -25 57 -33 12 -33 34 0 28 l25 -5 0
358 c-1 306 -3 357 -15 353 -9 -4 -16 3 -21 21 -8 32 0 42 21 25 13 -11 15 -4
15 58 0 66 -2 71 -22 74 -19 2 -25 13 -35 63 -12 58 -12 61 12 82 14 12 25 29
25 38 0 8 5 15 10 15 15 0 13 117 -2 123 -10 4 -10 6 0 6 9 1 12 118 12 551 0
488 -2 555 -16 582 -15 29 -15 32 1 44 16 12 16 14 2 20 -10 3 -19 23 -22 48
-7 47 11 197 24 206 5 3 9 108 9 235 1 202 -1 232 -16 248 -16 18 -16 20 1 32
16 11 17 57 17 666 l0 653 -45 -49 c-25 -28 -55 -71 -66 -97 -21 -47 -34 -59
-41 -38 -2 6 -107 -107 -235 -251 -144 -162 -230 -266 -226 -275 3 -9 -2 -14
-13 -14 -19 0 -426 -448 -432 -476 -2 -8 -9 -14 -15 -15 -7 0 -32 -24 -56 -52
-24 -29 -77 -88 -117 -132 -87 -97 -118 -135 -108 -135 4 0 20 15 35 33 35 41
51 29 57 -46 4 -47 7 -54 23 -50 28 8 25 -46 -6 -107 -14 -27 -25 -56 -25 -65
0 -24 -29 -17 -42 10 -9 20 -9 34 1 61 16 44 6 57 -20 25 -19 -23 -20 -23 -34
-5 -8 10 -15 22 -15 27 0 4 -7 7 -15 7 -8 0 -15 9 -15 20 0 11 -4 20 -8 20 -9
0 -37 -30 -601 -665 -205 -231 -486 -547 -625 -702 -138 -156 -251 -290 -251
-300 0 -9 -10 -20 -22 -23 -23 -5 -52 -39 -71 -83 -6 -15 -22 -31 -35 -36 -12
-5 -72 -64 -132 -132 -89 -100 -109 -128 -107 -151 2 -27 -11 -38 -23 -18 -4
6 -13 5 -26 -3 -14 -9 -22 -9 -27 -1 -23 37 -647 704 -662 709 -10 3 -20 14
-22 24 -2 10 -97 121 -213 246 -115 125 -226 245 -245 266 -19 21 -105 115
-190 208 -114 125 -158 167 -167 159 -7 -5 -17 -7 -23 -3 -19 12 -11 -55 11
-84 15 -21 19 -33 12 -46 -9 -15 -12 -15 -36 7 -21 18 -29 36 -35 88 -5 36 -7
83 -5 105 4 34 0 44 -26 69 -29 28 -31 28 -31 8 0 -38 -18 -33 -25 8 -4 25
-12 40 -21 40 -8 0 -14 9 -14 20 0 13 -138 171 -372 427 -292 317 -374 401
-376 384 -8 -50 -52 3 -52 62 0 11 -17 39 -38 61 -30 33 -42 40 -55 32 -18
-11 -47 7 -47 31 0 10 6 12 23 8 16 -5 10 6 -29 46 -28 30 -73 79 -100 109
-28 30 -84 91 -125 135 -99 107 -189 206 -382 417 l-162 177 -3 -1111 c-2
-1097 -2 -1110 18 -1135 26 -33 26 -92 0 -126 -20 -25 -20 -43 -22 -1369 l-3
-1343 -218 0 c-119 0 -217 -2 -217 -5 1 -12 60 -83 60 -72 0 7 7 12 15 12 21
0 48 -45 40 -69 -5 -16 25 -62 127 -198 73 -98 138 -185 145 -193 6 -8 125
-167 264 -353 138 -186 255 -337 260 -335 5 2 67 86 137 188 324 468 498 718
523 753 15 21 25 45 22 53 -3 9 1 14 11 14 9 0 19 6 21 13 6 15 -28 84 -49
100 -8 7 -18 25 -22 40 -11 47 26 30 54 -25 39 -76 51 -70 47 25 l-3 82 -181
3 -181 2 0 123 c-1 67 0 282 0 479 1 354 1 356 -20 351 -14 -4 -20 0 -20 11 0
9 8 16 20 16 19 0 20 7 20 128 -1 91 -5 134 -15 152 -19 33 -19 60 0 60 11 0
15 12 15 45 0 35 -3 43 -15 39 -16 -6 -45 12 -45 27 0 14 48 11 53 -3 3 -7 6
267 6 610 1 451 4 622 12 622 26 0 117 -82 323 -289 120 -122 221 -220 223
-218 2 2 -1 16 -7 31 -5 15 -10 44 -10 64 0 20 -9 51 -20 67 -30 45 -26 88 11
119 17 14 34 26 39 26 27 0 42 -18 56 -68 14 -46 14 -61 4 -93 -16 -48 -4 -67
50 -75 21 -3 42 -14 49 -26 14 -23 6 -37 -11 -20 -7 7 -16 12 -20 12 -12 0
-10 -38 4 -60 10 -16 8 -27 -10 -66 l-23 -46 113 -121 c62 -67 134 -145 160
-173 32 -35 48 -47 52 -38 3 8 10 14 16 14 14 0 13 -27 -2 -32 -8 -3 22 -43
71 -96 46 -51 87 -90 90 -87 3 3 12 34 21 68 11 47 21 65 40 74 24 12 25 13 3
13 -19 0 -23 6 -23 29 0 35 9 61 21 61 5 0 9 -11 9 -25 0 -27 17 -34 26 -10 4
8 12 15 20 15 21 0 17 38 -6 50 -22 12 -26 35 -8 46 6 4 20 -3 31 -17 13 -16
21 -20 24 -11 3 6 11 12 19 12 10 0 14 -13 14 -44 0 -35 5 -47 25 -60 l24 -16
-22 -44 c-18 -36 -27 -45 -48 -46 -24 0 -28 -5 -33 -47 -4 -27 -7 -65 -7 -85
0 -36 0 -37 -34 -31 -21 3 -35 1 -35 -4 0 -14 85 -83 101 -83 7 0 23 12 34 27
13 15 27 23 33 19 17 -10 15 -18 -13 -48 -23 -25 -25 -58 -3 -58 5 0 8 -8 6
-18 -2 -11 60 -88 172 -215 169 -190 176 -197 213 -197 27 0 37 -4 37 -16 0
-13 -6 -15 -27 -9 -33 8 -62 43 272 -335 149 -168 320 -363 380 -432 l110
-127 3 52 c3 78 10 97 32 97 22 0 26 -20 8 -38 -8 -8 -8 -15 1 -26 7 -8 10
-20 6 -26 -4 -6 -3 -24 0 -41 6 -28 9 -29 22 -16 12 12 13 18 2 35 -11 18 -11
24 -1 34 11 11 16 10 26 -4 12 -16 41 11 277 264 145 156 294 315 332 354 64
68 84 103 52 91 -8 -4 -27 0 -42 8 -17 9 -60 15 -113 16 -94 1 -144 9 -144 23
-1 16 31 29 50 22 11 -5 76 -9 146 -11 l127 -3 21 33 c11 19 37 48 58 66 36
32 37 32 40 10 2 -12 -8 -38 -23 -59 -29 -40 -7 -19 158 160 72 79 87 101 87
127 0 29 3 32 28 30 28 -3 37 5 271 256 36 39 96 102 134 142 37 39 67 76 67
81 0 6 -14 13 -31 17 -16 4 -28 12 -26 18 5 16 51 21 76 8 17 -9 40 11 193
176 95 103 182 196 193 207 11 12 108 116 215 231 107 115 223 239 257 275
l63 65 0 -495 c1 -272 1 -621 0 -775 l-1 -280 23 -10 c29 -13 30 -47 1 -60
l-22 -9 -1 -1112 0 -1111 646 -6 c974 -10 1224 -9 1224 5 0 9 3 9 12 0 9 -9
245 -12 1000 -12 l988 0 0 -260 0 -261 46 53 c25 29 71 81 101 115 30 33 64
74 76 91 12 16 50 63 84 103 34 41 173 209 308 374 236 289 245 301 245 343 0
40 -14 62 -217 340 -209 287 -275 376 -421 575 -38 50 -103 139 -145 196 l-77
105 -2 -255 -3 -254 -80 -3 c-44 -2 -297 -1 -562 3 l-483 7 0 527 0 527 -25
34 c-25 34 -21 60 11 60 12 0 14 263 14 1674 0 1476 -2 1675 -15 1680 -19 7
-19 40 0 60 13 13 15 137 15 999 l0 984 -132 28 c-148 30 -162 35 -166 59 -4
20 19 20 73 0 22 -8 58 -16 80 -19 22 -2 64 -10 93 -18 l52 -14 -3 526 c-3
289 -8 546 -12 570 -5 31 -4 42 4 37 8 -5 10 9 9 46 -1 50 -2 51 -5 11 -3 -31
-9 -43 -20 -43 -13 0 -15 8 -9 46 3 26 6 53 6 61 0 9 6 13 15 9 13 -5 15 186
15 1679 l0 1685 185 0 c102 0 185 2 185 5 0 2 -70 116 -154 254 -85 137 -172
278 -194 313 -152 248 -416 674 -422 681 -4 5 -75 -101 -157 -235z m322 -658
c14 -22 58 -148 65 -185 4 -22 11 -52 15 -67 9 -33 -10 -39 -20 -7 -4 12 -16
30 -27 41 -20 20 -58 100 -58 123 0 7 6 15 12 17 10 4 10 10 0 32 -6 15 -12
33 -12 41 0 17 16 20 25 5z m-201 -186 c11 -27 7 -37 -9 -24 -16 14 -20 40 -6
40 5 0 12 -7 15 -16z m156 -13 c0 -25 -14 -41 -36 -41 -30 0 -31 14 -2 34 25
18 38 20 38 7z m-380 -131 c0 -33 -11 -38 -30 -15 -10 12 -10 18 0 30 19 23
30 18 30 -15z m-50 -96 c0 -9 -7 -14 -17 -12 -25 5 -28 28 -4 28 12 0 21 -6
21 -16z m-40 -59 c0 -8 -7 -15 -15 -15 -16 0 -20 12 -8 23 11 12 23 8 23 -8z
m240 -56 c0 -11 -4 -17 -10 -14 -5 3 -10 15 -10 26 0 11 5 17 10 14 6 -3 10
-15 10 -26z m-250 -300 c0 -11 -4 -17 -10 -14 -5 3 -10 13 -10 21 0 8 5 14 10
14 6 0 10 -9 10 -21z m150 -49 c0 -12 -28 -25 -36 -17 -9 9 6 27 22 27 8 0 14
-5 14 -10z m170 -21 c0 -20 -15 -26 -25 -9 -9 15 3 43 15 35 5 -3 10 -15 10
-26z m-118 -4 c12 -26 4 -46 -11 -29 -5 5 -12 19 -16 32 -9 31 12 29 27 -3z
m162 -51 c9 -24 7 -34 -8 -34 -13 0 -26 20 -26 41 0 15 27 10 34 -7z m-204
-80 c0 -9 -7 -14 -17 -12 -25 5 -28 28 -4 28 12 0 21 -6 21 -16z m388 -102 c2
-7 -3 -12 -12 -12 -9 0 -16 7 -16 16 0 17 22 14 28 -4z m-528 -83 c0 -11 -4
-17 -10 -14 -5 3 -10 13 -10 21 0 8 5 14 10 14 6 0 10 -9 10 -21z m25 -70 c4
-11 4 -23 0 -27 -7 -7 -25 17 -25 36 0 20 18 14 25 -9z m658 -34 c1 -5 -6 -11
-15 -13 -11 -2 -18 3 -18 13 0 17 30 18 33 0z m-547 -91 c3 -19 4 -38 1 -41
-13 -12 -37 7 -42 34 -4 15 -10 35 -15 44 -5 10 -4 21 3 28 16 16 44 -19 53
-65z m-76 10 c0 -8 -4 -14 -9 -14 -11 0 -22 26 -14 34 9 9 23 -3 23 -20z m13
-46 c7 -25 3 -33 -12 -23 -13 8 -15 45 -2 45 5 0 11 -10 14 -22z m-33 -13 c0
-17 -2 -18 -24 -9 -23 9 -20 24 4 24 11 0 20 -7 20 -15z m130 -56 c7 -11 9
-24 5 -27 -7 -7 -35 25 -35 40 0 16 19 8 30 -13z m-9609 -10 c16 -30 -3 -45
-25 -20 -10 11 -15 25 -11 30 10 17 23 13 36 -10z m143 -45 c9 -24 7 -28 -9
-14 -17 14 -20 30 -6 30 5 0 12 -7 15 -16z m9492 -21 c3 -16 12 -52 19 -80 11
-45 11 -53 -1 -53 -22 0 -37 41 -38 102 -1 61 9 77 20 31z m-58 -22 c3 -8 -1
-12 -9 -9 -7 2 -15 10 -17 17 -3 8 1 12 9 9 7 -2 15 -10 17 -17z m-9395 -38
c3 -5 2 -28 -2 -53 l-6 -45 -38 37 c-20 21 -37 40 -37 42 0 3 15 10 33 15 42
12 45 12 50 4z m9505 -145 c12 -35 24 -87 28 -115 3 -29 10 -53 15 -53 5 0 9
-16 9 -35 0 -20 7 -49 15 -66 14 -26 14 -30 0 -35 -35 -14 -61 5 -83 58 -12
30 -22 63 -22 75 0 11 -9 40 -20 64 -26 58 -25 77 4 85 16 4 23 11 19 20 -4
11 -9 11 -29 -3 -23 -15 -24 -14 -24 11 0 19 5 26 20 26 11 0 23 7 26 15 11
28 22 15 42 -47z m217 -58 c3 -5 -1 -10 -9 -10 -9 0 -16 5 -16 10 0 6 4 10 9
10 6 0 13 -4 16 -10z m-301 -12 c2 -7 8 -28 14 -45 12 -40 0 -44 -34 -12 -21
19 -33 22 -114 20 -90 -2 -110 6 -67 27 42 22 196 29 201 10z m-9879 -69 c8
-25 1 -34 -20 -26 -19 8 -20 47 -1 47 8 0 18 -9 21 -21z m9875 -44 c0 -7 7
-21 17 -30 13 -13 13 -19 3 -25 -9 -6 -8 -10 6 -18 15 -8 16 -13 5 -26 -17
-21 -45 -21 -37 -1 3 9 -2 33 -10 55 -16 40 -13 77 6 65 5 -3 10 -12 10 -20z
m403 -6 c3 -13 1 -19 -6 -16 -15 5 -22 37 -9 37 5 0 12 -9 15 -21z m-718 -89
c0 -7 -6 -15 -12 -17 -8 -3 -13 4 -13 17 0 13 5 20 13 18 6 -3 12 -11 12 -18z
m-126 -34 c13 -16 4 -69 -11 -64 -5 2 -17 16 -26 31 -15 24 -15 29 -2 37 20
13 26 12 39 -4z m571 -30 l9 -21 0 23 c1 32 29 28 37 -5 3 -16 17 -59 30 -96
29 -82 29 -87 6 -87 -10 0 -22 -12 -29 -30 -12 -33 -33 -40 -33 -12 0 10 -10
39 -23 64 -26 51 -25 68 4 68 13 0 19 -7 19 -24 0 -13 7 -29 15 -36 13 -10 15
-9 15 8 0 25 -30 92 -41 92 -18 0 -39 34 -39 61 0 33 16 31 30 -5z m-80 15 c0
-6 -4 -13 -10 -16 -5 -3 -10 1 -10 9 0 9 5 16 10 16 6 0 10 -4 10 -9z m-9343
-146 c8 -22 -6 -33 -17 -15 -13 20 -12 30 0 30 6 0 13 -7 17 -15z m210 -100
c3 -9 3 -19 -1 -22 -7 -7 -36 16 -36 28 0 15 30 10 37 -6z m9313 -5 c21 -21
24 -32 13 -43 -9 -9 -53 33 -53 50 0 19 17 16 40 -7z m-10150 -26 c0 -8 -7
-14 -15 -14 -15 0 -21 21 -9 33 10 9 24 -2 24 -19z m10368 -7 c2 -18 -1 -27
-11 -27 -18 0 -29 24 -20 45 8 23 28 12 31 -18z m-299 -9 c8 -18 16 -27 19
-20 6 20 22 14 22 -8 0 -28 -27 -36 -50 -15 -19 17 -28 75 -12 75 4 0 14 -14
21 -32z m143 -125 c20 -65 23 -103 8 -103 -5 0 -15 9 -22 19 -6 11 -19 17 -27
14 -12 -4 -13 -3 -3 4 17 13 -1 63 -23 63 -25 0 -19 53 8 66 29 14 37 5 59
-63z m-10115 11 c-9 -9 -28 6 -21 18 4 6 10 6 17 -1 6 -6 8 -13 4 -17z m673
16 c0 -5 -4 -10 -10 -10 -5 0 -10 5 -10 10 0 6 5 10 10 10 6 0 10 -4 10 -10z
m9330 -40 c0 -16 -4 -30 -10 -30 -5 0 -10 14 -10 30 0 17 5 30 10 30 6 0 10
-13 10 -30z m-9700 -11 c7 -11 9 -24 5 -27 -7 -7 -35 25 -35 40 0 16 19 8 30
-13z m9694 -46 c7 -18 -17 -43 -41 -43 -11 0 -10 7 4 30 20 34 28 37 37 13z
m-9354 -32 c0 -17 -4 -33 -10 -36 -6 -4 -10 8 -10 29 0 20 5 36 10 36 6 0 10
-13 10 -29z m-670 -6 c7 -9 10 -18 7 -21 -10 -11 -37 5 -37 21 0 19 14 19 30
0z m10160 -41 c0 -8 -4 -14 -9 -14 -11 0 -22 26 -14 34 9 9 23 -3 23 -20z m28
-46 c6 -7 13 -31 17 -53 4 -22 13 -51 20 -65 32 -65 26 -99 -7 -40 -22 38 -58
41 -58 5 0 -40 -16 -29 -39 26 -31 72 -15 147 19 85 7 -14 18 -22 26 -19 11 4
10 9 -2 28 -22 34 -1 63 24 33z m-8909 -56 c-3 -7 -11 -5 -23 3 -10 8 -15 19
-11 25 9 14 40 -12 34 -28z m-849 -21 c0 -6 -4 -13 -10 -16 -5 -3 -10 1 -10 9
0 9 5 16 10 16 6 0 10 -4 10 -9z m8370 -87 c0 -8 -4 -12 -10 -9 -5 3 -10 10
-10 16 0 5 5 9 10 9 6 0 10 -7 10 -16z m240 -9 c0 -8 -4 -15 -10 -15 -5 0 -10
7 -10 15 0 8 5 15 10 15 6 0 10 -7 10 -15z m-8205 -15 c3 -5 1 -10 -4 -10 -6
0 -11 5 -11 10 0 6 2 10 4 10 3 0 8 -4 11 -10z m8059 -29 c26 -29 2 -34 -24
-6 -18 19 -20 25 -8 25 8 0 23 -9 32 -19z m1317 -4 c-1 -12 -15 -9 -19 4 -3 6
1 10 8 8 6 -3 11 -8 11 -12z m70 -75 c11 -42 13 -110 3 -121 -2 -2 -15 4 -30
14 -23 15 -26 21 -20 57 5 31 3 45 -10 59 -16 18 -16 20 1 39 24 26 39 13 56
-48z m-8844 36 c18 -7 33 -18 33 -25 0 -15 -11 -16 -42 -4 -13 5 -31 12 -41
15 -10 3 -15 10 -12 16 8 13 21 13 62 -2z m8063 -23 c0 -8 -9 -15 -20 -15 -13
0 -18 5 -14 15 4 8 12 15 20 15 8 0 14 -7 14 -15z m-760 -15 c6 -11 26 -27 45
-35 19 -7 35 -18 35 -24 0 -5 3 -16 6 -25 10 -27 -25 -19 -38 9 -6 13 -14 22
-19 20 -4 -3 -11 -1 -14 5 -4 6 -15 8 -26 5 -26 -8 -51 41 -28 56 21 13 27 11
39 -11z m155 0 c3 -5 1 -10 -4 -10 -6 0 -11 5 -11 10 0 6 2 10 4 10 3 0 8 -4
11 -10z m591 -35 c4 -8 3 -23 0 -32 -6 -15 -8 -15 -16 -3 -13 20 -12 50 0 50
6 0 13 -7 16 -15z m732 -23 c2 -12 -1 -22 -7 -22 -6 0 -11 4 -11 9 0 5 -3 17
-7 27 -4 12 -2 15 8 12 8 -2 15 -14 17 -26z m-508 -2 c0 -5 -4 -10 -10 -10 -5
0 -10 5 -10 10 0 6 5 10 10 10 6 0 10 -4 10 -10z m160 0 c0 -5 -4 -10 -10 -10
-5 0 -10 5 -10 10 0 6 5 10 10 10 6 0 10 -4 10 -10z m315 -40 c3 -5 1 -10 -4
-10 -6 0 -11 5 -11 10 0 6 2 10 4 10 3 0 8 -4 11 -10z m-1392 -24 c6 -16 -2
-28 -14 -20 -12 7 -11 34 0 34 5 0 11 -6 14 -14z m275 -30 c3 -12 -1 -17 -10
-14 -7 3 -15 13 -16 22 -3 12 1 17 10 14 7 -3 15 -13 16 -22z m1232 -1 c0 -8
-4 -15 -10 -15 -5 0 -10 7 -10 15 0 8 5 15 10 15 6 0 10 -7 10 -15z m-1557
-20 c4 -8 2 -17 -3 -20 -6 -4 -10 -4 -10 -1 0 2 -3 11 -6 20 -3 9 -2 16 4 16
5 0 12 -7 15 -15z m-7483 -11 c0 -17 -22 -14 -28 4 -2 7 3 12 12 12 9 0 16 -7
16 -16z m610 -9 c7 -9 10 -18 7 -22 -8 -7 -37 15 -37 28 0 14 16 11 30 -6z
m6950 0 c0 -8 -4 -15 -10 -15 -5 0 -10 7 -10 15 0 8 5 15 10 15 6 0 10 -7 10
-15z m1390 -1 c0 -9 -5 -14 -12 -12 -18 6 -21 28 -4 28 9 0 16 -7 16 -16z
m115 -5 c12 -19 -5 -23 -22 -6 -16 16 -16 17 -1 17 9 0 20 -5 23 -11z m-1240
-12 c19 -15 13 -37 -9 -37 -18 0 -39 27 -31 40 8 13 17 13 40 -3z m415 -31 c0
-11 -19 -15 -25 -6 -3 5 1 10 9 10 9 0 16 -2 16 -4z m-770 -16 c0 -5 -7 -10
-15 -10 -8 0 -15 5 -15 10 0 6 7 10 15 10 8 0 15 -4 15 -10z m1620 -40 c0 -16
-19 -30 -41 -30 -12 0 -11 27 2 51 8 16 13 18 25 8 8 -6 14 -19 14 -29z
m-1582 -12 c16 -16 15 -38 -2 -38 -13 0 -26 20 -26 41 0 13 14 11 28 -3z
m1522 -18 c0 -11 -4 -20 -9 -20 -5 0 -11 9 -14 20 -3 13 0 20 9 20 8 0 14 -9
14 -20z m-1692 -28 c3 -33 -8 -41 -26 -19 -14 16 -4 59 12 54 6 -2 12 -18 14
-35z m-7342 -17 c10 -24 0 -34 -20 -20 -10 8 -15 18 -11 24 9 16 25 14 31 -4z
m7474 -18 c0 -10 -30 -36 -42 -37 -11 0 -10 28 3 51 8 16 13 18 25 8 8 -6 14
-16 14 -22z m63 -9 c-6 -30 -23 -39 -23 -13 0 13 21 46 27 41 1 0 -1 -13 -4
-28z m-220 1 c9 -35 -12 -65 -28 -39 -7 12 5 60 15 60 4 0 10 -9 13 -21z m527
0 c10 -18 9 -20 -7 -17 -10 2 -19 11 -21 21 -5 24 15 21 28 -4z m1280 -39 c11
-22 18 -40 15 -40 -3 0 -8 0 -11 1 -4 0 -10 -5 -15 -13 -12 -19 -25 0 -33 50
-8 56 16 58 44 2z m-1741 -34 c17 -29 31 -68 31 -85 0 -28 -3 -32 -21 -26 -18
6 -20 4 -14 -15 5 -16 3 -21 -6 -18 -7 2 -17 19 -21 36 -9 34 -17 39 -36 20
-9 -9 -16 -7 -32 10 -26 27 -25 31 5 42 18 7 28 21 36 55 6 24 15 42 20 40 4
-3 22 -30 38 -59z m-6740 -30 c-12 -13 -49 22 -49 46 0 17 4 16 29 -9 17 -16
25 -32 20 -37z m6811 44 c0 -5 7 -10 15 -10 12 0 35 -28 35 -43 0 -7 -50 -15
-54 -8 -11 19 -16 71 -7 71 6 0 11 -4 11 -10z m-7550 -71 c7 12 15 12 54 0 43
-13 46 -16 41 -40 -4 -15 -1 -30 4 -34 16 -9 13 -35 -4 -35 -8 0 -17 11 -21
25 -3 14 -12 25 -20 25 -8 0 -22 9 -31 19 -16 20 -17 19 -46 -5 -15 -13 -33
-24 -38 -24 -18 0 -40 48 -33 74 l6 26 40 -22 c32 -18 41 -20 48 -9z m-862
-26 c-4 -22 -22 -20 -26 1 -2 10 3 16 13 16 10 0 15 -7 13 -17z m8482 -7 c0
-24 -19 -66 -30 -66 -5 0 -13 11 -16 26 -5 18 -1 29 12 39 24 18 34 19 34 1z
m1386 -23 c-6 -7 -56 9 -56 17 0 16 25 17 43 2 9 -8 15 -17 13 -19z m249 16
c9 -29 -4 -38 -21 -15 -18 25 -18 36 0 36 8 0 18 -9 21 -21z m-8490 1 c3 -6
-1 -13 -10 -16 -19 -8 -30 0 -20 15 8 14 22 14 30 1z m55 -41 c0 -5 -6 -9 -14
-9 -15 0 -28 24 -19 34 7 7 33 -13 33 -25z m-391 12 c7 -5 10 -14 6 -20 -5 -9
-10 -9 -21 0 -26 22 -14 38 15 20z m6970 -37 c3 -16 1 -17 -13 -5 -19 16 -21
34 -3 29 6 -3 14 -13 16 -24z m156 -4 c-5 -8 -11 -8 -17 -2 -6 6 -7 16 -3 22
5 8 11 8 17 2 6 -6 7 -16 3 -22z m-8131 -40 c-1 -19 -5 -56 -9 -82 -7 -41 -5
-48 9 -48 9 0 16 -6 16 -14 0 -11 -14 -13 -62 -11 -69 4 -80 17 -22 25 36 5
36 5 16 24 -23 20 -22 50 4 114 19 46 49 41 48 -8z m7366 -10 c0 -5 -4 -10
-10 -10 -5 0 -10 5 -10 10 0 6 5 10 10 10 6 0 10 -4 10 -10z m-5640 -25 c0
-16 -6 -25 -15 -25 -9 0 -15 9 -15 25 0 16 6 25 15 25 9 0 15 -9 15 -25z
m5570 10 c0 -8 -4 -15 -10 -15 -5 0 -10 7 -10 15 0 8 5 15 10 15 6 0 10 -7 10
-15z m108 -59 c32 -30 35 -36 19 -41 -12 -5 -30 3 -56 26 -22 19 -40 37 -40
42 -2 19 43 3 77 -27z m-5778 3 c0 -24 -23 -21 -28 4 -2 10 3 17 12 17 10 0
16 -9 16 -21z m5885 -9 c14 -16 16 -23 7 -32 -9 -9 -18 -6 -37 12 -14 13 -25
27 -25 32 0 16 37 8 55 -12z m-6285 -39 c0 -5 11 -6 25 -3 18 3 25 0 25 -11 0
-24 -80 -31 -124 -11 -20 10 -36 21 -36 25 0 4 17 11 38 16 36 10 72 1 72 -16z
m533 7 c13 -7 52 -11 95 -9 58 2 72 0 72 -12 0 -8 -7 -17 -15 -21 -23 -8 -18
-25 11 -38 27 -12 27 -17 9 -91 -6 -21 0 -33 30 -62 40 -41 46 -83 10 -77 -32
6 -55 32 -92 107 -32 63 -34 72 -24 102 18 49 8 57 -68 50 -78 -8 -96 0 -87
37 7 28 25 33 59 14z m5437 2 c0 -5 -4 -10 -10 -10 -5 0 -10 5 -10 10 0 6 5
10 10 10 6 0 10 -4 10 -10z m744 -14 c8 -14 8 -20 -1 -23 -7 -3 -13 -13 -13
-24 0 -21 -15 -25 -26 -7 -4 6 1 17 11 25 15 10 16 16 7 25 -7 7 -12 16 -12
21 0 14 23 3 34 -17z m-6409 5 c29 -7 30 -7 8 -19 -12 -7 -40 -12 -62 -12 -50
0 -51 -10 -8 -43 29 -22 36 -23 57 -12 44 24 69 -26 35 -71 -8 -10 -15 -25
-15 -32 0 -22 47 16 60 48 7 17 16 30 21 30 13 0 28 -33 35 -81 7 -39 8 -41
17 -21 6 12 13 22 17 22 14 0 18 -40 7 -53 -7 -7 -18 -23 -25 -35 -10 -18 -10
-22 2 -22 18 0 30 -30 17 -43 -12 -12 -31 0 -31 19 0 8 -8 14 -19 14 -10 0
-30 9 -44 20 -34 27 -41 26 -60 -15 -9 -19 -23 -35 -31 -35 -21 0 -27 41 -20
128 7 86 10 81 -70 147 -34 27 -52 35 -85 35 -34 0 -41 3 -41 20 0 19 6 20
103 19 56 -1 116 -4 132 -8z m63 -10 c3 -8 -1 -12 -9 -9 -7 2 -15 10 -17 17
-3 8 1 12 9 9 7 -2 15 -10 17 -17z m90 -4 c2 -12 -3 -17 -17 -17 -12 0 -21 6
-21 13 0 31 32 34 38 4z m6342 16 c-1 -18 -18 -35 -24 -24 -4 6 -4 16 -1 21 7
12 25 13 25 3z m1780 -3 c0 -5 -4 -10 -10 -10 -5 0 -10 5 -10 10 0 6 5 10 10
10 6 0 10 -4 10 -10z m-10141 -21 c22 -18 23 -22 11 -44 -17 -32 -28 -32 -36
3 -4 15 -11 30 -17 33 -10 7 -1 29 11 29 4 -1 18 -10 31 -21z m1269 4 c2 -9
-8 -13 -32 -13 -34 0 -44 8 -29 24 11 11 56 2 61 -11z m132 -9 c0 -8 -9 -14
-20 -14 -22 0 -26 10 -8 28 13 13 28 7 28 -14z m-280 -5 c0 -5 -10 -9 -21 -9
-18 0 -19 2 -9 15 12 15 30 12 30 -6z m7220 -19 c8 -5 11 -12 8 -16 -10 -9
-38 3 -38 16 0 12 10 13 30 0z m238 -2 c-7 -19 -38 -22 -38 -4 0 10 9 16 21
16 12 0 19 -5 17 -12z m-1118 -27 c0 -29 -14 -41 -51 -41 -26 0 -24 9 8 42 34
35 43 35 43 -1z m1190 -12 c0 -5 -4 -9 -10 -9 -5 0 -10 7 -10 16 0 8 5 12 10
9 6 -3 10 -10 10 -16z m-368 -69 c-18 -29 -19 -29 -35 -12 -21 23 -22 36 -3
29 15 -6 30 19 20 34 -3 5 -2 14 2 20 4 8 12 3 21 -14 12 -23 11 -30 -5 -57z
m-6226 45 c8 -31 -1 -55 -20 -55 -13 0 -28 64 -17 75 12 13 31 2 37 -20z m302
-2 c4 -27 5 -26 -37 -12 -32 11 -40 24 -18 33 26 11 52 1 55 -21z m6210 -11
c2 -7 -3 -12 -12 -12 -9 0 -16 7 -16 16 0 17 22 14 28 -4z m-8558 -2 c0 -5 -4
-10 -10 -10 -5 0 -10 5 -10 10 0 6 5 10 10 10 6 0 10 -4 10 -10z m7578 -89
c12 -54 12 -64 -1 -79 -8 -9 -19 -33 -24 -52 l-10 -35 -21 49 c-29 65 -29 132
0 163 12 13 27 22 32 20 6 -2 17 -32 24 -66z m-7664 34 c20 -30 20 -45 3 -45
-12 0 -21 12 -45 63 -10 19 28 4 42 -18z m7956 -42 c0 -24 -25 -9 -28 17 -3
21 -2 22 12 11 9 -7 16 -20 16 -28z m354 1 c4 -9 4 -19 2 -21 -8 -8 -26 8 -26
23 0 19 16 18 24 -2z m-6954 2 c0 -3 -4 -8 -10 -11 -5 -3 -10 -1 -10 4 0 6 5
11 10 11 6 0 10 -2 10 -4z m7090 -11 c0 -8 -4 -15 -10 -15 -5 0 -10 7 -10 15
0 8 5 15 10 15 6 0 10 -7 10 -15z m-1006 -34 c3 -5 15 -7 26 -4 14 4 20 0 20
-11 0 -9 -4 -16 -8 -16 -4 0 -13 -14 -19 -31 -17 -44 -37 -32 -41 24 -3 43 8
61 22 38z m-5077 -55 c25 -22 26 -26 14 -49 -9 -16 -11 -39 -6 -65 9 -53 -7
-61 -51 -27 -54 41 -82 123 -52 153 19 19 65 14 95 -12z m5673 -27 c0 -24 -23
-21 -28 4 -2 10 3 17 12 17 10 0 16 -9 16 -21z m-75 -9 c0 -18 -46 -35 -70
-26 -17 6 -17 8 1 27 21 23 69 23 69 -1z m-5375 -26 c12 -31 12 -34 2 -34 -8
0 -32 43 -32 55 0 16 22 1 30 -21z m4842 9 c26 -23 22 -33 -11 -33 -28 0 -47
22 -35 41 8 14 25 11 46 -8z m438 8 c0 -6 -4 -13 -10 -16 -5 -3 -10 1 -10 9 0
9 5 16 10 16 6 0 10 -4 10 -9z m-35 -19 c0 -18 -20 -15 -23 4 -3 10 1 15 10
12 7 -3 13 -10 13 -16z m-215 4 c0 -2 3 -11 6 -20 4 -12 0 -16 -15 -16 -14 0
-21 6 -21 20 0 11 7 20 15 20 8 0 15 -2 15 -4z m-5775 -87 c8 -23 1 -34 -14
-24 -13 8 -15 45 -2 45 5 0 13 -9 16 -21z m5595 5 c0 -17 -22 -14 -28 4 -2 7
3 12 12 12 9 0 16 -7 16 -16z m-23 -60 c-9 -9 -28 6 -21 18 4 6 10 6 17 -1 6
-6 8 -13 4 -17z m-5567 -35 c0 -15 -5 -20 -22 -17 -34 5 -37 38 -4 38 20 0 26
-5 26 -21z m981 -5 c12 -14 11 -16 -5 -13 -11 2 -21 10 -24 17 -5 17 13 15 29
-4z m6839 -14 c0 -5 -4 -10 -10 -10 -5 0 -10 5 -10 10 0 6 5 10 10 10 6 0 10
-4 10 -10z m-6820 -86 c21 -55 -3 -61 -26 -6 -11 28 -11 32 2 32 8 0 19 -12
24 -26z m-892 4 c-3 -7 -11 -13 -18 -13 -7 0 -15 6 -17 13 -3 7 4 12 17 12 13
0 20 -5 18 -12z m7732 -118 c0 -11 -4 -20 -10 -20 -5 0 -10 9 -10 20 0 11 5
20 10 20 6 0 10 -9 10 -20z m-6613 -31 c-14 -22 -24 -24 -30 -6 -7 20 15 48
30 36 9 -8 9 -15 0 -30z m-107 6 c0 -8 -7 -15 -15 -15 -16 0 -20 12 -8 23 11
12 23 8 23 -8z m150 -89 c0 -3 -4 -8 -10 -11 -5 -3 -10 -1 -10 4 0 6 5 11 10
11 6 0 10 -2 10 -4z m4833 -52 c-4 -10 -9 -12 -15 -6 -12 12 -1 35 12 27 5 -3
6 -13 3 -21z m-4770 -10 c15 -20 17 -35 12 -75 -6 -45 -10 -50 -36 -56 -28 -5
-33 -13 -29 -42 4 -31 -23 -70 -56 -81 -19 -6 -38 -19 -44 -28 -8 -13 -11 -14
-18 -4 -5 7 -21 14 -35 16 -37 4 -40 9 -22 42 23 45 20 97 -7 109 -16 7 -26
23 -32 54 -9 40 -7 46 13 63 28 22 131 26 131 6 1 -7 16 -20 34 -29 26 -12 33
-12 29 -2 -3 7 2 16 11 19 9 3 16 12 16 20 0 21 13 16 33 -12z m4695 -14 c1
-14 -2 -32 -8 -40 -8 -13 -13 -11 -34 11 -23 25 -23 27 -8 43 23 23 46 16 50
-14z m-7580 -19 c3 -16 -1 -22 -10 -19 -7 3 -15 15 -16 27 -3 16 1 22 10 19 7
-3 15 -15 16 -27z m7450 10 c3 -8 -1 -12 -9 -9 -7 2 -15 10 -17 17 -3 8 1 12
9 9 7 -2 15 -10 17 -17z m42 4 c0 -8 -4 -15 -10 -15 -5 0 -10 7 -10 15 0 8 5
15 10 15 6 0 10 -7 10 -15z m-92 -32 c-4 -22 -22 -20 -26 1 -2 10 3 16 13 16
10 0 15 -7 13 -17z m-4923 -43 c-6 -9 -9 -9 -16 1 -10 17 0 34 13 21 6 -6 7
-16 3 -22z m4209 8 c18 -25 8 -42 -17 -32 -18 6 -24 54 -8 54 6 0 17 -10 25
-22z m504 -22 c3 -13 0 -16 -10 -10 -7 5 -23 7 -35 5 -15 -1 -23 3 -23 13 0
24 64 16 68 -8z m-4583 -17 c4 -5 8 -31 9 -57 2 -26 6 -56 9 -67 4 -11 2 -27
-3 -35 -9 -13 -13 -12 -29 8 -11 12 -27 22 -36 22 -9 0 -15 6 -12 13 2 6 9 11
14 10 7 -1 8 15 5 42 -6 56 23 98 43 64z m310 -29 c-5 -8 -11 -8 -17 -2 -6 6
-7 16 -3 22 5 8 11 8 17 2 6 -6 7 -16 3 -22z m-407 -42 c2 -44 0 -57 -14 -62
-9 -3 -23 -1 -31 6 -13 10 -13 14 2 24 10 7 16 24 15 41 -3 45 -1 55 13 51 7
-3 13 -27 15 -60z m4362 32 c0 -5 -5 -10 -11 -10 -5 0 -7 5 -4 10 3 6 8 10 11
10 2 0 4 -4 4 -10z m-3950 -60 c0 -32 -9 -36 -41 -20 -25 14 -25 33 1 25 14
-5 20 -2 20 9 0 9 5 16 10 16 6 0 10 -13 10 -30z m3620 26 c0 -11 -19 -15 -25
-6 -3 5 1 10 9 10 9 0 16 -2 16 -4z m3335 -26 c3 -5 1 -10 -4 -10 -6 0 -11 5
-11 10 0 6 2 10 4 10 3 0 8 -4 11 -10z m-9895 -110 c0 -5 -2 -10 -4 -10 -3 0
-8 5 -11 10 -3 6 -1 10 4 10 6 0 11 -4 11 -10z m3207 -47 c4 -81 9 -93 43 -93
22 0 32 -7 43 -30 21 -41 4 -53 -48 -36 -55 19 -75 55 -75 137 0 36 3 69 7 72
18 19 28 2 30 -50z m2893 -4 c0 -24 -23 -21 -28 4 -2 10 3 17 12 17 10 0 16
-9 16 -21z m306 -156 c-10 -10 -19 5 -10 18 6 11 8 11 12 0 2 -7 1 -15 -2 -18z
m-3204 -35 c7 -59 -6 -68 -30 -22 -15 29 -17 42 -8 51 21 23 34 13 38 -29z
m175 7 c3 -9 3 -18 1 -21 -9 -9 -38 8 -38 22 0 19 29 18 37 -1z m6153 -55 c0
-5 -4 -10 -10 -10 -5 0 -10 5 -10 10 0 6 5 10 10 10 6 0 10 -4 10 -10z m-6245
-21 c0 -7 -8 -15 -17 -17 -18 -3 -25 18 -11 32 10 10 28 1 28 -15z m-9 -124
c19 -47 18 -65 -5 -65 -11 0 -23 -4 -26 -10 -3 -5 -19 -10 -36 -10 -28 0 -29
1 -29 53 0 30 3 57 7 60 3 4 22 7 40 7 29 0 36 -5 49 -35z m6222 2 c3 -15 -2
-18 -25 -15 -17 2 -29 10 -31 21 -3 15 2 18 25 15 17 -2 29 -10 31 -21z
m-2780 -6 c3 -8 -1 -12 -9 -9 -7 2 -15 10 -17 17 -3 8 1 12 9 9 7 -2 15 -10
17 -17z m2893 -62 c15 -8 18 -14 10 -23 -14 -16 -81 2 -81 21 0 16 44 17 71 2z
m-351 -35 c0 -16 -16 -19 -25 -4 -8 13 4 32 16 25 5 -4 9 -13 9 -21z m-6030
-66 c24 -39 25 -48 6 -48 -8 0 -18 14 -21 33 -4 17 -13 35 -19 39 -8 6 -7 8 2
8 7 0 21 -15 32 -32z m3080 12 c0 -5 -2 -10 -4 -10 -3 0 -8 5 -11 10 -3 6 -1
10 4 10 6 0 11 -4 11 -10z m3235 -10 c0 -11 -10 -15 -38 -14 -42 1 -52 7 -42
24 10 17 80 8 80 -10z m355 16 c0 -3 -4 -8 -10 -11 -5 -3 -10 -1 -10 4 0 6 5
11 10 11 6 0 10 -2 10 -4z m-630 -32 c0 -9 -5 -14 -12 -12 -18 6 -21 28 -4 28
9 0 16 -7 16 -16z m500 1 c0 -8 -4 -15 -10 -15 -5 0 -10 7 -10 15 0 8 5 15 10
15 6 0 10 -7 10 -15z m-6464 -41 c8 -30 -6 -99 -20 -99 -5 0 -18 12 -29 26
-17 24 -18 31 -7 63 14 44 46 50 56 10z m6351 1 c8 -22 -6 -33 -17 -15 -13 20
-12 30 0 30 6 0 13 -7 17 -15z m-53 -48 c11 -41 8 -48 -14 -35 -24 15 -29 71
-6 62 8 -3 17 -15 20 -27z m-119 -17 c15 0 30 -34 21 -48 -8 -14 17 -72 31
-72 7 0 13 -7 13 -15 0 -8 -4 -15 -10 -15 -20 0 -50 35 -50 58 0 13 -7 36 -15
52 -9 17 -13 30 -9 30 4 0 1 6 -5 13 -6 8 -7 17 -3 21 4 4 8 1 10 -8 2 -9 10
-16 17 -16z m-9516 -9 c6 -10 7 -21 4 -25 -7 -7 -43 23 -43 36 0 16 29 8 39
-11z m9318 -5 c18 -6 32 -14 33 -18 0 -10 -6 -10 -55 3 -61 15 -67 18 -60 29
7 11 16 9 82 -14z m263 -2 c12 -32 13 -64 1 -64 -5 0 -11 12 -13 28 -3 15 -9
35 -13 45 -4 10 -3 17 4 17 6 0 16 -12 21 -26z m-4076 1 c17 -13 18 -15 2 -21
-18 -7 -49 13 -40 27 7 12 16 11 38 -6z m859 1 c3 -8 3 -17 0 -20 -9 -9 -34
15 -27 25 8 13 21 11 27 -5z m-3190 -40 c8 -21 -16 -39 -31 -24 -7 7 -12 18
-12 25 0 18 36 17 43 -1z m6527 4 c0 -5 -4 -10 -10 -10 -5 0 -10 5 -10 10 0 6
5 10 10 10 6 0 10 -4 10 -10z m-9601 -24 c9 -10 9 -16 1 -21 -13 -8 -42 14
-34 26 8 13 20 11 33 -5z m9551 -20 c-13 -13 -35 7 -25 24 5 8 11 8 21 -1 10
-8 12 -15 4 -23z m-3306 1 c13 -20 5 -30 -18 -21 -9 3 -16 15 -16 26 0 22 18
20 34 -5z m3456 -27 c0 -5 -4 -10 -10 -10 -5 0 -10 5 -10 10 0 6 5 10 10 10 6
0 10 -4 10 -10z m-6486 -25 c16 -17 11 -45 -8 -45 -6 0 -17 10 -25 21 -11 18
-11 23 1 30 17 11 14 12 32 -6z m3071 -5 c18 -29 -42 -52 -75 -30 -13 9 -12
12 4 25 23 17 62 20 71 5z m3529 -9 c13 -14 14 -21 5 -27 -7 -4 -18 1 -26 11
-26 36 -9 49 21 16z m-6704 -16 c0 -9 -6 -12 -15 -9 -8 4 -15 10 -15 15 0 5 7
9 15 9 8 0 15 -7 15 -15z m-3234 -17 c4 -6 3 -13 -3 -15 -6 -2 -9 -13 -6 -23
4 -15 0 -20 -16 -20 -24 0 -28 22 -6 43 8 8 11 17 8 21 -4 3 -1 6 5 6 6 0 14
-5 18 -12z m3309 -38 c8 -14 19 -52 26 -86 l12 -60 109 -16 c60 -8 112 -19
116 -22 13 -13 -23 -27 -58 -21 -19 3 -69 8 -110 11 -45 4 -82 13 -93 22 -13
12 -20 13 -29 4 -15 -15 -41 -15 -55 -1 -14 14 -6 39 14 39 8 0 12 4 9 9 -9
14 4 41 20 41 8 0 14 9 14 20 0 11 5 20 11 20 7 0 5 10 -5 25 -9 13 -16 29
-16 35 0 19 20 6 35 -20z m2603 8 c4 -19 -13 -23 -42 -12 -26 10 -18 31 11 30
18 -1 29 -7 31 -18z m-1808 2 c0 -5 -4 -10 -10 -10 -5 0 -10 5 -10 10 0 6 5
10 10 10 6 0 10 -4 10 -10z m1236 -26 c17 -39 15 -75 -2 -81 -14 -5 -34 48
-34 88 0 40 18 36 36 -7z m-5396 16 c0 -12 -28 -25 -36 -17 -9 9 6 27 22 27 8
0 14 -5 14 -10z m6345 -27 c14 -28 20 -33 22 -20 4 17 24 23 36 10 12 -11 -25
-43 -49 -43 -16 0 -25 9 -33 31 -23 66 -6 81 24 22z m119 21 c9 -24 7 -44 -4
-44 -12 0 -30 41 -23 53 7 12 21 8 27 -9z m-3155 -17 c13 -17 5 -27 -24 -27
-12 0 -25 3 -28 7 -9 8 12 33 28 33 7 0 18 -6 24 -13z m2551 -17 c0 -5 -9 -10
-21 -10 -11 0 -17 5 -14 10 3 6 13 10 21 10 8 0 14 -4 14 -10z m104 4 c19 -7
20 -14 2 -37 -13 -17 -15 -17 -50 -1 -46 23 -47 44 -2 44 19 0 41 -3 50 -6z
m569 -15 c3 -13 1 -19 -6 -16 -15 5 -22 37 -9 37 5 0 12 -9 15 -21z m-6485 -5
c12 -21 4 -54 -13 -54 -7 0 -15 -5 -17 -12 -6 -18 -38 -1 -38 19 0 25 28 63
45 63 8 0 18 -7 23 -16z m4142 -15 c0 -20 -31 -26 -64 -13 -24 9 -19 21 12 32
34 12 52 5 52 -19z m-970 6 c7 -9 10 -18 7 -21 -10 -11 -37 5 -37 21 0 19 14
19 30 0z m868 -9 c3 -12 -1 -17 -10 -14 -7 3 -15 13 -16 22 -3 12 1 17 10 14
7 -3 15 -13 16 -22z m-580 -9 c4 -19 -6 -21 -27 -8 -16 10 -5 34 12 28 7 -2
13 -11 15 -20z m-378 -37 c0 -5 -5 -10 -11 -10 -5 0 -7 5 -4 10 3 6 8 10 11
10 2 0 4 -4 4 -10z m3387 -34 c-6 -17 -27 -18 -33 -2 -3 9 -3 24 1 34 6 16 7
16 21 -3 8 -10 13 -24 11 -29z m-3302 4 c0 -22 -39 -19 -43 3 -3 15 1 18 20
15 12 -2 23 -10 23 -18z m2223 -13 c3 -16 -1 -17 -35 -11 -44 8 -53 12 -53 24
0 6 19 9 42 7 32 -1 44 -7 46 -20z m121 12 c49 -17 38 -32 -19 -27 -56 6 -72
14 -50 28 19 13 30 12 69 -1z m276 -19 c3 -5 1 -11 -4 -11 -6 -1 -14 -2 -18
-4 -54 -14 -86 -16 -96 -6 -9 9 -8 14 3 21 20 13 107 13 115 0z m80 -9 c7 -12
-12 -24 -25 -16 -11 7 -4 25 10 25 5 0 11 -4 15 -9z m3605 -5 c0 -15 -18 -31
-26 -23 -7 7 7 37 17 37 5 0 9 -6 9 -14z m-5636 -25 c3 -4 3 -11 0 -14 -8 -8
-34 3 -34 14 0 11 27 12 34 0z m289 -17 c10 -3 17 -13 15 -22 -4 -23 -68 -28
-105 -8 -19 9 -34 11 -44 5 -32 -20 -95 -1 -72 22 9 9 19 10 36 2 17 -8 28 -7
42 4 19 14 75 12 128 -3z m98 -4 c28 -15 25 -43 -3 -34 -64 19 -73 25 -58 34
20 13 37 12 61 0z m59 0 c0 -5 -4 -10 -10 -10 -5 0 -10 5 -10 10 0 6 5 10 10
10 6 0 10 -4 10 -10z m2090 -10 c0 -5 -4 -10 -10 -10 -5 0 -10 5 -10 10 0 6 5
10 10 10 6 0 10 -4 10 -10z m3660 -95 c0 -8 -4 -15 -10 -15 -5 0 -10 7 -10 15
0 8 5 15 10 15 6 0 10 -7 10 -15z m-4184 -51 c39 -16 49 -30 29 -38 -22 -8
-43 3 -51 26 -5 18 -7 18 -18 3 -18 -25 -76 -12 -76 17 0 18 4 19 41 13 23 -4
57 -13 75 -21z m187 -33 c8 -8 8 -14 0 -22 -14 -14 -94 9 -101 30 -4 11 5 13
43 9 26 -3 52 -11 58 -17z m177 -16 c0 -8 -7 -15 -15 -15 -8 0 -15 7 -15 15 0
8 7 15 15 15 8 0 15 -7 15 -15z m-40 -5 c0 -5 -4 -10 -10 -10 -5 0 -10 5 -10
10 0 6 5 10 10 10 6 0 10 -4 10 -10z m3138 -69 c3 -8 -1 -12 -9 -9 -7 2 -15
10 -17 17 -3 8 1 12 9 9 7 -2 15 -10 17 -17z m147 -55 c30 -11 36 -16 23 -21
-27 -11 -63 -1 -66 18 -4 20 -7 20 43 3z m-3767 -48 c18 -18 15 -75 -4 -82
-28 -11 -32 -7 -39 35 -5 30 -3 44 6 50 18 12 23 11 37 -3z m90 -42 c3 -12 -1
-17 -10 -14 -7 3 -15 13 -16 22 -3 12 1 17 10 14 7 -3 15 -13 16 -22z m4237 4
c18 -20 17 -20 -8 -20 -20 0 -27 5 -27 20 0 11 4 20 8 20 5 0 17 -9 27 -20z
m-5485 -245 c0 -8 -4 -15 -10 -15 -5 0 -10 7 -10 15 0 8 5 15 10 15 6 0 10 -7
10 -15z m-3116 -21 c12 -17 15 -29 8 -36 -10 -10 -42 26 -42 49 0 20 13 15 34
-13z m2396 -29 c0 -8 -4 -15 -10 -15 -5 0 -10 7 -10 15 0 8 5 15 10 15 6 0 10
-7 10 -15z m-2212 -18 c2 -10 -3 -17 -12 -17 -10 0 -16 9 -16 21 0 24 23 21
28 -4z m2292 2 c0 -16 -31 -22 -43 -10 -9 9 -9 14 2 20 16 10 41 4 41 -10z
m730 -2 c0 -20 -6 -23 -39 -25 -28 -2 -40 2 -45 14 -5 13 -2 15 19 10 18 -5
27 -2 31 9 9 24 34 18 34 -8z m-3160 -12 c7 -9 10 -18 7 -21 -10 -11 -37 5
-37 21 0 19 14 19 30 0z m3048 -7 c-3 -7 -11 -13 -18 -13 -7 0 -15 6 -17 13
-3 7 4 12 17 12 13 0 20 -5 18 -12z m642 -18 c0 -5 -4 -10 -10 -10 -5 0 -10 5
-10 10 0 6 5 10 10 10 6 0 10 -4 10 -10z m-40 -46 c0 -16 -9 -18 -29 -5 -7 5
-11 14 -7 19 9 15 36 4 36 -14z m260 1 c0 -8 -4 -15 -10 -15 -5 0 -10 7 -10
15 0 8 5 15 10 15 6 0 10 -7 10 -15z m-3812 -55 c21 -32 22 -35 6 -39 -16 -3
-41 21 -65 62 -20 36 34 14 59 -23z m-1371 5 c3 -9 3 -19 -1 -22 -7 -7 -36 16
-36 28 0 15 30 10 37 -6z m-143 -101 c17 -7 22 -34 6 -34 -5 0 -10 4 -10 10 0
5 -10 9 -21 7 -12 -1 -24 4 -26 11 -5 13 24 16 51 6z m1495 -51 c1 -21 -17
-15 -24 7 -9 27 6 50 16 24 4 -10 8 -25 8 -31z m-1721 25 c16 -16 15 -28 -3
-28 -8 0 -15 2 -15 4 0 2 -3 11 -6 20 -7 19 7 21 24 4z m1912 -154 c32 -57 36
-74 20 -74 -5 0 -10 7 -10 15 0 7 -7 18 -15 22 -14 8 -65 99 -65 117 0 18 41
-28 70 -80z m380 56 c0 -5 -6 -10 -14 -10 -8 0 -18 5 -21 10 -3 6 3 10 14 10
12 0 21 -4 21 -10z m10 -125 c0 -51 -10 -69 -25 -44 -10 15 4 99 16 99 5 0 9
-25 9 -55z m-320 -56 c0 -16 -4 -29 -9 -29 -11 0 -32 56 -24 63 13 13 33 -8
33 -34z m3400 26 c0 -8 -4 -15 -10 -15 -5 0 -10 7 -10 15 0 8 5 15 10 15 6 0
10 -7 10 -15z m2564 -11 c4 -9 4 -19 2 -22 -10 -9 -36 8 -36 23 0 20 26 19 34
-1z m1746 -9 c0 -8 -7 -15 -15 -15 -8 0 -15 7 -15 15 0 8 7 15 15 15 8 0 15
-7 15 -15z m400 -31 c0 -13 -21 -44 -30 -44 -11 0 -14 33 -3 43 8 8 33 9 33 1z
m-8056 -39 c8 -8 18 -25 22 -37 4 -12 28 -50 54 -84 80 -105 166 -254 146
-254 -26 0 -238 314 -254 378 -5 17 13 15 32 -3z m313 3 c13 -18 44 -101 39
-106 -10 -9 -26 11 -46 55 -11 25 -20 49 -20 54 0 13 16 11 27 -3z m7654 -21
c-13 -13 -26 -3 -16 12 3 6 11 8 17 5 6 -4 6 -10 -1 -17z m-2143 -6 c3 -8 -1
-12 -9 -9 -7 2 -15 10 -17 17 -3 8 1 12 9 9 7 -2 15 -10 17 -17z m-280 -14 c2
-10 -3 -17 -12 -17 -10 0 -16 9 -16 21 0 24 23 21 28 -4z m232 -6 c0 -11 -4
-23 -10 -26 -6 -4 -10 5 -10 19 0 14 5 26 10 26 6 0 10 -9 10 -19z m-384 -37
c-5 -13 -10 -14 -18 -6 -6 6 -8 18 -4 28 5 13 10 14 18 6 6 -6 8 -18 4 -28z
m518 2 c-4 -9 -14 -16 -23 -14 -23 5 -26 35 -4 40 24 6 35 -5 27 -26z m-5966
-14 c3 -9 -2 -13 -14 -10 -9 1 -19 9 -22 16 -3 9 2 13 14 10 9 -1 19 -9 22
-16z m8102 8 c0 -5 -4 -10 -10 -10 -5 0 -10 5 -10 10 0 6 5 10 10 10 6 0 10
-4 10 -10z m-470 -10 c0 -5 -4 -10 -10 -10 -5 0 -10 5 -10 10 0 6 5 10 10 10
6 0 10 -4 10 -10z m-2422 -36 c34 -10 26 -24 -13 -24 -24 0 -35 5 -35 15 0 16
12 18 48 9z m242 -19 c23 -27 -1 -36 -58 -23 -67 16 -69 38 -3 38 32 0 53 -5
61 -15z m191 -19 c9 -11 15 -24 12 -28 -10 -18 -125 1 -139 23 -3 5 -3 17 0
25 9 24 104 9 127 -20z m271 6 c24 -24 -4 -46 -67 -54 -46 -6 -62 -4 -75 7 -9
8 -25 15 -36 15 -27 0 -48 16 -42 32 8 18 201 19 220 0z m213 8 c6 -2 21 -3
34 -4 31 -1 38 -22 12 -36 -16 -8 -31 -8 -60 1 -28 8 -43 8 -59 0 -11 -6 -27
-11 -35 -11 -21 0 -31 32 -14 45 13 9 96 13 122 5z m-5885 -36 c0 -9 -7 -14
-17 -12 -25 5 -28 28 -4 28 12 0 21 -6 21 -16z m456 -46 c-3 -24 -21 -35 -31
-19 -8 14 13 53 25 46 6 -3 8 -16 6 -27z m4654 1 c0 -6 -4 -7 -10 -4 -5 3 -10
11 -10 16 0 6 5 7 10 4 6 -3 10 -11 10 -16z m442 -29 c3 -16 1 -30 -3 -30 -9
0 -29 57 -22 64 11 10 21 -4 25 -34z m398 25 c0 -8 -4 -15 -10 -15 -5 0 -10 7
-10 15 0 8 5 15 10 15 6 0 10 -7 10 -15z m-250 -4 c0 -5 3 -16 6 -25 4 -11 1
-16 -10 -16 -10 0 -16 9 -16 25 0 14 5 25 10 25 6 0 10 -4 10 -9z m100 -11 c0
-11 -4 -20 -10 -20 -5 0 -10 9 -10 20 0 11 5 20 10 20 6 0 10 -9 10 -20z
m1533 4 c7 -8 -14 -54 -25 -54 -12 0 -21 27 -14 45 5 15 27 20 39 9z m155 -11
c-2 -10 -12 -18 -23 -18 -11 0 -21 8 -23 18 -3 13 3 17 23 17 20 0 26 -4 23
-17z m317 7 c33 -13 25 -27 -25 -40 -30 -8 -44 -7 -60 2 -26 16 -25 22 3 36
29 14 49 14 82 2z m-115 -15 c0 -8 -4 -15 -10 -15 -5 0 -10 7 -10 15 0 8 5 15
10 15 6 0 10 -7 10 -15z m-2447 -17 c7 -27 -2 -45 -14 -27 -11 18 -11 49 0 49
5 0 11 -10 14 -22z m247 7 c0 -8 -7 -15 -15 -15 -16 0 -20 12 -8 23 11 12 23
8 23 -8z m520 -6 c0 -11 -4 -17 -10 -14 -5 3 -10 13 -10 21 0 8 5 14 10 14 6
0 10 -9 10 -21z m-1003 -67 c6 -55 17 -60 28 -12 9 40 23 38 27 -2 l4 -33 13
45 c7 25 15 49 18 53 8 14 40 -37 49 -78 7 -35 8 -37 12 -13 2 15 -2 36 -7 47
-16 28 -13 51 5 51 32 0 59 -130 34 -170 -8 -13 -9 -13 -14 0 -13 42 -15 40
-10 -7 6 -51 5 -53 -22 -63 -44 -17 -59 -9 -56 26 3 29 1 31 -22 27 -21 -4
-25 -10 -20 -27 7 -31 -20 -54 -41 -36 -13 11 -20 9 -41 -11 -15 -13 -30 -34
-35 -46 -5 -14 -17 -23 -29 -23 -16 0 -20 7 -20 36 0 23 6 41 16 49 13 9 18
32 21 96 6 133 9 147 41 151 37 5 42 -1 49 -60z m-6887 24 c0 -40 -23 -64 -44
-47 -27 22 -26 50 2 65 39 20 42 19 42 -18z m6690 19 c0 -8 -4 -15 -9 -15 -13
0 -22 16 -14 24 11 11 23 6 23 -9z m-4895 -18 c0 -26 -20 -25 -23 2 -3 16 1
22 10 19 7 -3 13 -12 13 -21z m7785 -23 c0 -8 -4 -12 -10 -9 -5 3 -10 10 -10
16 0 5 5 9 10 9 6 0 10 -7 10 -16z m-1876 -20 c31 -12 15 -24 -30 -24 -40 0
-45 2 -34 15 13 16 38 19 64 9z m154 -38 c3 -12 -1 -17 -10 -14 -7 3 -15 13
-16 22 -3 12 1 17 10 14 7 -3 15 -13 16 -22z m-490 -35 c5 -53 -7 -101 -25
-101 -11 0 -14 6 -8 23 9 27 9 53 -1 90 -6 25 -4 28 12 25 13 -2 20 -13 22
-37z m1782 2 c0 -24 -25 -9 -28 17 -3 21 -2 22 12 11 9 -7 16 -20 16 -28z
m-7163 -40 c3 -10 31 -56 61 -103 85 -132 95 -148 156 -256 31 -55 56 -106 56
-112 0 -18 -17 -14 -24 6 -3 9 -19 37 -35 62 -16 25 -53 84 -81 132 -29 48
-58 92 -66 99 -8 6 -14 17 -14 23 0 7 -15 38 -34 69 -19 32 -38 66 -41 77 -8
25 13 27 22 3z m-303 -34 c-8 -13 -24 -1 -24 18 0 13 3 13 15 3 8 -7 12 -16 9
-21z m7918 11 c24 0 23 -17 -1 -30 -24 -12 -41 -13 -60 -1 -11 7 -10 12 5 30
12 14 22 17 28 11 6 -6 18 -10 28 -10z m-445 -5 c8 -22 -6 -33 -17 -15 -13 20
-12 30 0 30 6 0 13 -7 17 -15z m253 -20 c0 -8 -7 -15 -15 -15 -8 0 -15 7 -15
15 0 8 7 15 15 15 8 0 15 -7 15 -15z m-7630 -30 c18 -22 5 -30 -19 -13 -12 8
-18 18 -14 21 10 11 19 8 33 -8z m553 -47 c14 -30 14 -35 1 -48 -14 -13 -17
-12 -35 9 -19 23 -25 52 -12 64 14 15 31 5 46 -25z m4512 -16 c0 -18 -20 -15
-23 4 -3 10 1 15 10 12 7 -3 13 -10 13 -16z m-228 -7 c3 -9 3 -19 -1 -22 -7
-7 -36 16 -36 28 0 15 30 10 37 -6z m-6650 -10 c8 -22 -6 -33 -17 -15 -13 20
-12 30 0 30 6 0 13 -7 17 -15z m2033 -5 c0 -5 -7 -10 -15 -10 -8 0 -15 5 -15
10 0 6 7 10 15 10 8 0 15 -4 15 -10z m-2506 -64 c15 -37 10 -56 -14 -56 -27 0
-37 21 -32 68 3 36 6 41 19 31 8 -7 20 -26 27 -43z m8396 35 c0 -21 -13 -41
-26 -41 -10 0 -14 -14 -14 -50 0 -76 -30 -61 -45 24 -7 35 -6 38 13 32 15 -5
21 -1 26 19 4 16 13 25 26 25 11 0 20 -4 20 -9z m-5486 -82 c-9 -15 -33 22
-34 51 0 24 1 24 20 -8 11 -18 18 -38 14 -43z m5314 49 c14 -14 16 -48 4 -48
-5 0 -17 7 -28 15 -27 20 -37 19 -24 -4 14 -28 12 -51 -5 -51 -8 0 -17 12 -21
28 -3 15 -8 33 -10 41 -9 28 59 44 84 19z m-7840 -14 c20 -14 22 -21 16 -67
-13 -103 -64 -92 -64 13 0 74 8 83 48 54z m2509 -53 c9 -20 18 -30 20 -23 9
25 21 11 27 -33 4 -24 32 -94 63 -155 36 -72 52 -115 46 -121 -6 -6 -23 17
-46 66 -21 42 -37 80 -37 84 0 5 -9 11 -19 14 -11 3 -22 18 -26 37 -4 19 -20
51 -36 73 -19 26 -29 52 -29 74 0 42 16 35 37 -16z m71 32 c2 -8 -5 -13 -17
-13 -12 0 -21 6 -21 16 0 18 31 15 38 -3z m5121 -27 c9 -11 10 -20 1 -35 -13
-24 -30 -28 -30 -6 0 8 -9 15 -19 15 -22 0 -35 15 -26 30 9 15 61 12 74 -4z
m-6259 -6 c0 -5 -5 -10 -11 -10 -5 0 -7 5 -4 10 3 6 8 10 11 10 2 0 4 -4 4
-10z m5010 -34 c0 -24 -16 -43 -26 -33 -8 7 7 57 17 57 5 0 9 -11 9 -24z
m1468 -46 c14 -23 8 -40 -14 -40 -9 0 -14 11 -14 30 0 35 10 38 28 10z m-110
-14 c3 -13 -1 -17 -14 -14 -11 2 -20 11 -22 22 -3 13 1 17 14 14 11 -2 20 -11
22 -22z m-7928 -6 c0 -5 -4 -10 -10 -10 -5 0 -10 5 -10 10 0 6 5 10 10 10 6 0
10 -4 10 -10z m3184 -6 c7 -19 -2 -37 -15 -29 -12 8 -12 45 0 45 5 0 12 -7 15
-16z m4826 -82 c0 -17 -20 -55 -33 -64 -31 -19 -51 28 -22 52 8 7 15 20 15 30
0 9 3 20 7 24 9 9 33 -22 33 -42z m-60 18 c0 -5 -4 -10 -10 -10 -5 0 -10 5
-10 10 0 6 5 10 10 10 6 0 10 -4 10 -10z m-4725 -40 c0 -18 -33 -26 -47 -12
-6 6 -7 15 -3 22 10 16 50 8 50 -10z m3953 -3 c7 -8 7 -18 2 -27 -10 -17 -15
-13 -24 18 -8 24 5 30 22 9z m556 -2 c3 -9 0 -15 -9 -15 -8 0 -15 7 -15 15 0
8 4 15 9 15 5 0 11 -7 15 -15z m178 -27 c-16 -16 -35 3 -26 26 6 16 8 16 22 2
13 -12 14 -18 4 -28z m-216 5 c-10 -10 -19 5 -10 18 6 11 8 11 12 0 2 -7 1
-15 -2 -18z m-6136 -3 c0 -5 -4 -10 -10 -10 -5 0 -10 5 -10 10 0 6 5 10 10 10
6 0 10 -4 10 -10z m6110 0 c0 -5 -4 -10 -10 -10 -5 0 -10 5 -10 10 0 6 5 10
10 10 6 0 10 -4 10 -10z m-4430 -39 c12 -23 13 -61 2 -61 -17 0 -32 25 -32 52
0 32 15 37 30 9z m-425 -93 c8 -13 19 -23 23 -23 36 -3 52 -18 52 -50 0 -45
16 -85 34 -85 21 0 27 -90 8 -112 -22 -26 -30 -22 -40 15 -7 27 -13 32 -35 29
-36 -4 -53 29 -37 69 15 35 6 91 -21 137 -22 38 -23 42 -10 42 6 0 17 -10 26
-22z m329 0 c11 -15 14 -35 11 -62 l-5 -41 17 43 c9 23 22 41 28 39 23 -8 82
-164 72 -192 -7 -17 -67 -22 -67 -5 0 5 -16 17 -36 25 -34 14 -38 14 -49 -2
-11 -15 -10 -22 6 -44 21 -30 24 -49 9 -49 -5 0 -10 7 -10 15 0 21 -27 30 -44
16 -7 -6 -20 -9 -27 -6 -18 6 -39 -38 -39 -81 0 -42 -62 -116 -81 -97 -9 9
-10 19 -2 35 6 14 7 32 2 46 -9 25 -4 42 12 42 5 0 9 -13 9 -30 0 -16 5 -30
11 -30 6 0 9 21 8 56 -2 43 1 59 14 69 9 6 14 15 11 18 -12 12 7 77 22 77 10
0 13 -7 8 -24 -5 -22 -3 -23 35 -22 23 0 41 4 41 7 0 4 3 21 6 39 5 24 3 31
-7 30 -31 -5 -40 1 -37 23 2 14 11 23 26 25 19 3 22 9 22 53 0 53 10 61 34 27z
m180 0 c12 -17 13 -25 4 -36 -10 -12 -16 -10 -35 12 -13 15 -23 31 -23 37 0
18 39 9 54 -13z m4756 -3 c0 -8 -4 -15 -10 -15 -5 0 -10 7 -10 15 0 8 5 15 10
15 6 0 10 -7 10 -15z m2030 7 c0 -5 -8 -16 -17 -24 -20 -17 -63 -8 -63 13 0 6
7 9 15 5 8 -3 15 -1 15 4 0 6 11 10 25 10 14 0 25 -4 25 -8z m-6840 -57 c0 -8
-4 -15 -10 -15 -5 0 -10 7 -10 15 0 8 5 15 10 15 6 0 10 -7 10 -15z m6590 -95
c0 -5 -4 -10 -10 -10 -5 0 -10 5 -10 10 0 6 5 10 10 10 6 0 10 -4 10 -10z
m-6511 -37 c12 -41 9 -48 -14 -40 -9 4 -15 19 -15 42 0 46 16 45 29 -2z
m-3479 17 c0 -5 -4 -10 -10 -10 -5 0 -10 5 -10 10 0 6 5 10 10 10 6 0 10 -4
10 -10z m6194 -43 c21 -15 34 -91 17 -101 -15 -10 -111 22 -117 38 -6 17 46
76 66 76 9 0 24 -6 34 -13z m-3234 -62 c0 -8 -4 -15 -10 -15 -5 0 -10 7 -10
15 0 8 5 15 10 15 6 0 10 -7 10 -15z m345 -15 c12 -20 -46 -110 -72 -110 -18
0 -17 26 2 34 8 3 15 15 15 27 0 22 26 59 41 59 4 0 11 -4 14 -10z m-65 -27
c0 -13 -3 -13 -15 -3 -8 7 -12 16 -9 21 8 13 24 1 24 -18z m2856 -59 c-3 -9
-6 -20 -6 -25 0 -6 -4 -7 -10 -4 -16 10 -12 45 6 45 11 0 14 -5 10 -16z
m-4148 -25 c7 -12 11 -23 8 -26 -8 -9 -36 17 -36 33 0 20 13 17 28 -7z m4250
4 c2 -8 -5 -13 -17 -13 -12 0 -21 6 -21 16 0 18 31 15 38 -3z m-2829 -17 c8
-10 9 -16 1 -21 -13 -8 -30 3 -30 21 0 18 14 18 29 0z m2802 -36 c20 -11 24
-60 10 -125 -8 -38 -48 -44 -44 -7 2 16 -2 22 -17 22 -12 0 -24 9 -28 20 -8
20 -8 20 -28 -3 -27 -31 -20 -48 17 -40 26 5 29 3 29 -19 0 -13 -5 -29 -12
-36 -16 -16 -2 -28 17 -12 38 32 63 -32 26 -67 -12 -12 -20 -38 -24 -75 -3
-32 -14 -71 -23 -88 -29 -48 -74 -53 -74 -7 0 13 -16 47 -35 77 -38 60 -43 81
-20 100 15 12 26 10 57 -12 28 -20 32 -2 8 38 -19 30 -24 33 -32 20 -13 -23
-33 -20 -48 8 -14 27 -8 67 15 90 8 8 15 29 15 46 0 43 17 72 38 66 9 -3 24
-1 32 4 20 13 96 13 121 0z m-2861 -21 c7 -11 9 -28 5 -37 -5 -15 -9 -13 -25
8 -11 14 -20 31 -20 38 0 20 28 14 40 -9z m6830 6 c0 -8 -4 -15 -10 -15 -5 0
-10 7 -10 15 0 8 5 15 10 15 6 0 10 -7 10 -15z m-7913 -51 c23 -25 34 -45 32
-63 -3 -42 12 -102 32 -122 22 -22 24 -39 5 -39 -7 0 -16 -10 -19 -21 -5 -19
-11 -21 -41 -16 -21 3 -36 1 -38 -5 -5 -13 -45 -5 -73 16 -29 21 -14 29 53 27
72 -1 87 11 70 57 -9 23 -19 32 -35 32 -16 0 -21 -4 -17 -15 4 -8 1 -15 -5
-15 -20 0 -24 29 -7 55 21 32 20 50 -5 85 -22 28 -20 60 2 60 6 0 27 -16 46
-36z m113 32 c0 -3 -4 -8 -10 -11 -5 -3 -10 -1 -10 4 0 6 5 11 10 11 6 0 10
-2 10 -4z m1108 -42 c6 -10 6 -31 0 -53 -5 -20 -12 -46 -15 -58 -3 -13 -9 -23
-13 -23 -5 0 -6 -9 -3 -21 3 -11 0 -31 -7 -43 -10 -19 -9 -29 4 -54 9 -17 20
-34 26 -37 14 -9 12 -45 -2 -46 -7 0 -32 -2 -54 -4 -53 -6 -61 5 -72 84 -7 47
-15 68 -37 91 -22 23 -26 33 -17 42 9 9 13 8 17 -4 8 -21 45 -11 45 12 0 29
-11 50 -26 50 -8 0 -11 6 -7 16 3 8 11 13 18 10 7 -2 18 6 25 19 7 13 22 26
34 28 47 9 75 6 84 -9z m82 1 c10 -12 10 -19 2 -27 -13 -13 -42 6 -42 28 0 19
24 18 40 -1z m6555 -15 c-6 -9 -9 -9 -16 1 -10 17 0 34 13 21 6 -6 7 -16 3
-22z m-7752 -14 c-3 -39 -8 -42 -39 -22 -25 17 -25 18 -8 37 25 28 49 20 47
-15z m937 16 c0 -10 -22 -32 -32 -32 -4 0 -8 9 -8 20 0 13 7 20 20 20 11 0 20
-4 20 -8z m-1131 -44 c1 -5 -3 -8 -8 -8 -11 0 -21 37 -13 45 6 5 20 -19 21
-37z m8072 6 c12 -14 11 -16 -5 -13 -11 2 -21 10 -24 17 -5 17 13 15 29 -4z
m-138 -18 c6 -16 -2 -28 -14 -20 -12 7 -11 34 0 34 5 0 11 -6 14 -14z m-6499
-47 c-3 -5 -10 -7 -15 -3 -5 3 -7 10 -3 15 3 5 10 7 15 3 5 -3 7 -10 3 -15z
m4496 5 c0 -8 -4 -12 -10 -9 -5 3 -10 10 -10 16 0 5 5 9 10 9 6 0 10 -7 10
-16z m-65 -14 c0 -22 -29 -18 -33 3 -3 14 1 18 15 15 10 -2 18 -10 18 -18z
m2165 -4 c0 -8 -4 -17 -9 -21 -12 -7 -24 12 -16 25 9 15 25 12 25 -4z m-2520
-16 c0 -5 -4 -10 -10 -10 -5 0 -10 5 -10 10 0 6 5 10 10 10 6 0 10 -4 10 -10z
m418 -48 c-2 -14 -9 -27 -15 -30 -17 -5 -27 22 -19 54 6 22 9 24 22 13 8 -7
14 -24 12 -37z m-6154 3 c16 -12 17 -18 7 -28 -10 -10 -15 -8 -27 7 -26 36
-15 47 20 21z m6011 5 c3 -5 3 -15 -1 -21 -6 -11 -23 6 -24 24 0 10 18 9 25
-3z m2250 0 c3 -5 3 -15 -1 -21 -6 -11 -23 6 -24 24 0 10 18 9 25 -3z m-4270
-29 c3 -5 1 -12 -5 -16 -5 -3 -10 1 -10 9 0 18 6 21 15 7z m-3515 -17 c0 -8
-4 -12 -10 -9 -5 3 -10 10 -10 16 0 5 5 9 10 9 6 0 10 -7 10 -16z m7370 -20
c0 -13 -4 -24 -9 -24 -13 0 -24 37 -16 50 10 16 25 1 25 -26z m-7420 12 c0 -3
-4 -8 -10 -11 -5 -3 -10 -1 -10 4 0 6 5 11 10 11 6 0 10 -2 10 -4z m5710 -16
c0 -11 -4 -20 -9 -20 -14 0 -23 18 -16 30 10 17 25 11 25 -10z m-53 -30 c2
-20 11 -42 22 -51 18 -14 18 -18 4 -31 -14 -14 -13 -18 6 -37 12 -12 21 -25
21 -31 0 -5 7 -10 15 -10 8 0 15 -7 15 -15 0 -17 -35 -21 -45 -5 -3 6 -17 10
-30 10 -13 0 -29 8 -34 18 -10 15 -11 15 -17 -5 -7 -24 -20 -28 -42 -14 -13 8
-4 34 38 122 4 8 6 28 5 44 -4 36 2 47 23 43 11 -2 17 -15 19 -38z m-4775 -5
c0 -5 -5 -11 -11 -13 -6 -2 -11 4 -11 13 0 9 5 15 11 13 6 -2 11 -8 11 -13z
m2706 -4 c3 -8 -1 -12 -9 -9 -7 2 -15 10 -17 17 -3 8 1 12 9 9 7 -2 15 -10 17
-17z m-2638 1 c0 -14 -11 -21 -26 -15 -21 8 -17 23 6 23 11 0 20 -4 20 -8z
m210 -7 c7 -9 10 -18 7 -22 -8 -7 -37 15 -37 28 0 14 16 11 30 -6z m794 -7 c3
-13 6 -35 6 -50 0 -20 7 -28 31 -37 18 -6 47 -11 66 -11 23 0 33 -4 30 -12 -4
-14 -47 -16 -90 -5 -24 7 -29 4 -44 -28 -20 -41 -34 -41 -45 2 -6 23 -15 32
-39 37 -31 6 -76 40 -48 36 31 -5 49 1 49 15 0 17 16 20 25 5 4 -6 11 -8 16
-5 12 8 12 45 -1 45 -5 0 -10 7 -10 15 0 25 47 19 54 -7z m-589 -19 c88 -22
117 -46 45 -36 -22 3 -40 2 -40 -1 0 -4 -16 -7 -35 -8 -19 0 -35 3 -35 6 0 4
-20 15 -45 24 -25 10 -43 22 -39 27 9 15 59 11 149 -12z m2465 6 c0 -8 -7 -15
-15 -15 -16 0 -20 12 -8 23 11 12 23 8 23 -8z m278 -4 c3 -8 -1 -12 -9 -9 -7
2 -15 10 -17 17 -3 8 1 12 9 9 7 -2 15 -10 17 -17z m3438 -7 c19 -15 34 -33
34 -40 0 -20 -10 -18 -52 11 -24 16 -35 30 -32 40 8 20 10 19 50 -11z m-6056
-24 c0 -5 -4 -10 -10 -10 -5 0 -10 5 -10 10 0 6 5 10 10 10 6 0 10 -4 10 -10z
m135 -10 c3 -5 3 -15 0 -20 -7 -12 -45 5 -45 20 0 13 37 13 45 0z m2516 0 c5
0 9 -7 9 -15 0 -8 -9 -15 -20 -15 -11 0 -20 -4 -20 -9 0 -5 9 -13 20 -16 11
-3 20 -12 20 -18 0 -7 -9 -20 -20 -30 -11 -9 -20 -24 -20 -32 0 -8 -4 -15 -9
-15 -17 0 -31 28 -37 74 -6 38 -4 46 9 46 9 0 19 9 22 21 4 13 12 18 22 15 8
-3 19 -6 24 -6z m-2376 -10 c3 -5 4 -14 0 -20 -7 -11 -55 8 -55 22 0 11 48 10
55 -2z m-2521 -31 c-3 -5 -10 -7 -15 -3 -5 3 -7 10 -3 15 3 5 10 7 15 3 5 -3
7 -10 3 -15z m1876 1 c0 -5 -2 -10 -4 -10 -3 0 -8 5 -11 10 -3 6 -1 10 4 10 6
0 11 -4 11 -10z m2930 -5 c0 -8 -7 -15 -15 -15 -8 0 -15 7 -15 15 0 8 7 15 15
15 8 0 15 -7 15 -15z m-380 -10 c0 -19 -24 -30 -41 -19 -9 5 -7 11 6 21 24 17
35 17 35 -2z m50 -10 c0 -8 -6 -15 -14 -15 -17 0 -28 14 -19 24 12 12 33 6 33
-9z m1535 -5 c3 -5 -1 -10 -10 -10 -9 0 -13 5 -10 10 3 6 8 10 10 10 2 0 7 -4
10 -10z m-1257 -22 c-5 -34 -38 -37 -38 -4 0 20 5 26 21 26 15 0 20 -5 17 -22z
m3352 -4 c0 -16 -16 -19 -25 -4 -8 13 4 32 16 25 5 -4 9 -13 9 -21z m158 1 c2
-1 -6 -18 -17 -36 -18 -29 -21 -31 -21 -12 0 13 -8 24 -20 28 -11 3 -20 13
-20 22 0 12 7 14 38 8 20 -4 38 -8 40 -10z m-4013 -24 c62 -24 71 -42 18 -40
-21 1 -49 -2 -62 -6 -22 -7 -24 -6 -18 16 4 13 7 30 7 37 0 15 -4 16 55 -7z
m568 -71 c-3 -12 2 -20 16 -25 25 -8 27 -18 6 -35 -8 -7 -15 -19 -15 -27 0 -7
-7 -25 -16 -38 -20 -31 -84 -37 -84 -7 0 9 -9 32 -20 50 -22 35 -26 67 -10 77
6 4 5 13 -2 25 -14 23 -7 33 16 24 13 -5 15 -14 10 -40 -7 -37 7 -44 39 -20
15 12 16 18 6 39 -6 14 -8 34 -4 44 6 16 10 14 35 -15 16 -20 26 -41 23 -52z
m-2550 9 c2 -24 -3 -34 -15 -37 -15 -3 -17 3 -14 40 5 56 4 54 17 41 6 -6 12
-26 12 -44z m2157 21 c0 -5 -7 -10 -15 -10 -8 0 -15 5 -15 10 0 6 7 10 15 10
8 0 15 -4 15 -10z m3494 -2 c5 -10 7 -10 12 0 9 18 24 15 24 -6 0 -37 -51 -59
-64 -27 -11 30 15 61 28 33z m197 -9 c15 -15 18 -24 10 -32 -14 -14 -41 9 -41
34 0 24 5 24 31 -2z m-1806 1 c3 -5 4 -14 0 -20 -8 -13 -35 -1 -35 16 0 16 26
19 35 4z m-3517 -24 c3 -12 -1 -17 -10 -14 -7 3 -15 13 -16 22 -3 12 1 17 10
14 7 -3 15 -13 16 -22z m1790 5 c3 -8 -1 -12 -9 -9 -7 2 -15 10 -17 17 -3 8 1
12 9 9 7 -2 15 -10 17 -17z m1837 -40 c0 -37 17 -50 40 -31 12 10 18 10 31 -1
9 -7 29 -12 45 -11 21 3 29 -1 29 -12 0 -10 -9 -16 -25 -16 -19 0 -25 -5 -25
-21 0 -28 -19 -61 -31 -54 -5 4 -6 17 -3 30 5 20 1 27 -20 37 -22 9 -29 9 -43
-4 -17 -18 -10 -38 13 -38 8 0 14 -9 14 -20 0 -32 -2 -31 -101 48 -27 22 -28
25 -13 47 9 13 13 28 10 34 -8 13 44 53 63 49 11 -2 16 -15 16 -37z m1785 4
c-7 -9 -15 -13 -18 -10 -3 2 1 11 8 20 7 9 15 13 18 10 3 -2 -1 -11 -8 -20z
m-9715 -15 c3 -5 -1 -10 -9 -10 -9 0 -16 5 -16 10 0 6 4 10 9 10 6 0 13 -4 16
-10z m93 -2 c-7 -19 -38 -22 -38 -4 0 10 9 16 21 16 12 0 19 -5 17 -12z m1533
-21 c-1 -4 -1 -16 -1 -27 0 -11 -4 -20 -10 -20 -5 0 -10 14 -10 31 0 17 5 29
11 27 6 -2 10 -7 10 -11z m8029 -8 c0 -12 -29 -24 -37 -16 -3 4 -3 13 0 21 6
16 37 11 37 -5z m-7350 -40 c0 -16 -5 -29 -10 -29 -14 0 -31 46 -24 65 10 24
34 -2 34 -36z m1480 37 c0 -8 -5 -18 -11 -22 -14 -8 -33 11 -25 25 10 16 36
13 36 -3z m1528 -29 c44 -23 54 -48 30 -80 -12 -14 -17 -14 -46 -2 -19 8 -36
24 -39 35 -6 22 -18 26 -28 10 -12 -20 -34 -9 -40 20 -4 16 -4 34 -1 39 9 14
75 2 124 -22z m2810 0 c2 -15 -1 -27 -7 -27 -14 0 -33 38 -26 51 11 17 30 4
33 -24z m-7993 -2 c0 -28 -29 -25 -33 3 -3 19 0 23 15 20 10 -2 18 -12 18 -23z
m-62 -17 c39 -14 46 -28 23 -47 -11 -9 -17 -8 -29 4 -9 8 -19 15 -23 15 -11 0
-44 32 -44 43 0 9 4 9 73 -15z m3677 12 c0 -5 -7 -10 -16 -10 -8 0 -12 5 -9
10 3 6 10 10 16 10 5 0 9 -4 9 -10z m470 -16 c0 -17 -22 -14 -28 4 -2 7 3 12
12 12 9 0 16 -7 16 -16z m1230 12 c0 -11 -19 -15 -25 -6 -3 5 1 10 9 10 9 0
16 -2 16 -4z m90 -16 c0 -5 -4 -10 -10 -10 -5 0 -10 5 -10 10 0 6 5 10 10 10
6 0 10 -4 10 -10z m4510 -11 c0 -11 -4 -17 -10 -14 -5 3 -10 13 -10 21 0 8 5
14 10 14 6 0 10 -9 10 -21z m-235 1 c3 -5 1 -10 -4 -10 -6 0 -11 5 -11 10 0 6
2 10 4 10 3 0 8 -4 11 -10z m-8131 -21 c-3 -5 -10 -7 -15 -3 -5 3 -7 10 -3 15
3 5 10 7 15 3 5 -3 7 -10 3 -15z m8422 10 c9 -16 -21 -43 -40 -36 -14 6 -14
10 -4 27 14 22 33 26 44 9z m-9821 -36 c18 -27 25 -51 25 -85 0 -27 -4 -48 -8
-48 -5 0 -18 14 -30 30 -27 35 -36 37 -64 10 -12 -11 -16 -20 -9 -20 8 0 10
-7 6 -20 -4 -12 0 -31 9 -45 21 -32 20 -48 -4 -70 -19 -17 -19 -19 -3 -37 13
-14 14 -21 5 -30 -7 -7 -12 -22 -12 -35 0 -13 -4 -23 -9 -23 -18 0 -42 33 -36
49 15 37 17 72 6 85 -9 10 -10 37 -5 88 7 80 26 128 50 128 12 0 13 4 4 20
-14 26 -5 40 25 40 17 0 32 -12 50 -37z m6014 21 c3 -3 -2 -12 -11 -20 -19
-19 -38 -11 -38 17 0 16 4 19 23 13 12 -3 24 -8 26 -10z m3262 -5 c9 -17 8
-23 -2 -30 -23 -15 -29 -10 -29 21 0 35 14 39 31 9z m-9771 -8 c0 -6 -4 -13
-10 -16 -5 -3 -10 1 -10 9 0 9 5 16 10 16 6 0 10 -4 10 -9z m1872 -6 c0 -5 -5
-11 -11 -13 -6 -2 -11 4 -11 13 0 9 5 15 11 13 6 -2 11 -8 11 -13z m2126 3
c19 -19 14 -28 -13 -28 -14 0 -28 -7 -31 -15 -4 -8 -10 -15 -15 -15 -10 0 -12
53 -2 63 11 11 48 8 61 -5z m762 -13 c0 -8 -4 -15 -10 -15 -5 0 -10 7 -10 15
0 8 5 15 10 15 6 0 10 -7 10 -15z m1250 -5 c0 -5 -4 -10 -10 -10 -5 0 -10 5
-10 10 0 6 5 10 10 10 6 0 10 -4 10 -10z m390 0 c0 -5 -4 -10 -10 -10 -5 0
-10 5 -10 10 0 6 5 10 10 10 6 0 10 -4 10 -10z m-4298 -23 c13 -20 3 -31 -28
-32 -25 0 -29 4 -32 29 -3 27 -2 28 25 21 15 -3 31 -12 35 -18z m218 -9 c0 -4
-4 -8 -10 -8 -5 0 -10 -10 -10 -22 0 -34 -15 -50 -41 -46 -18 2 -25 10 -27 33
-2 17 -8 35 -14 42 -18 23 1 30 52 19 27 -5 50 -14 50 -18z m100 -9 c0 -10 -4
-19 -9 -19 -12 0 -23 29 -15 41 8 14 24 0 24 -22z m5910 11 c0 -11 -4 -20 -10
-20 -5 0 -10 9 -10 20 0 11 5 20 10 20 6 0 10 -9 10 -20z m-2780 1 c0 -6 -5
-13 -10 -16 -15 -9 -43 3 -35 15 8 13 45 13 45 1z m4224 -27 c4 -9 4 -19 2
-21 -8 -8 -26 8 -26 23 0 19 16 18 24 -2z m71 -15 c4 -11 4 -23 0 -27 -7 -7
-25 17 -25 36 0 20 18 14 25 -9z m-7775 -47 c0 -26 -25 -5 -28 24 -2 28 -2 28
13 10 8 -11 15 -26 15 -34z m-238 3 c4 -16 5 -31 2 -34 -9 -9 -34 30 -34 52 0
28 23 15 32 -18z m148 21 c0 -8 -4 -17 -8 -20 -13 -8 -35 11 -28 23 10 16 36
14 36 -3z m3428 4 c12 0 22 -6 22 -14 0 -18 -14 -23 -56 -18 -26 3 -34 9 -34
24 0 16 5 19 23 14 12 -3 32 -6 45 -6z m527 0 c-3 -5 -17 -10 -31 -10 -13 0
-24 5 -24 10 0 6 14 10 31 10 17 0 28 -4 24 -10z m-637 -37 c5 -17 -26 -29
-40 -15 -6 6 -7 15 -3 22 9 14 37 9 43 -7z m650 -16 c16 -19 -1 -40 -26 -33
-14 5 -18 13 -15 26 6 23 26 26 41 7z m2043 -2 c-1 -15 -24 -12 -29 3 -3 9 2
13 12 10 10 -1 17 -7 17 -13z m183 -7 c5 -9 7 -20 3 -25 -9 -8 -60 20 -65 37
-6 18 49 7 62 -12z m-7669 -10 c-3 -13 -9 -33 -12 -45 -7 -32 -33 -29 -33 3 0
34 17 64 37 64 11 0 14 -6 8 -22z m3508 0 c21 -12 100 -21 258 -31 74 -5 100
-14 78 -28 -23 -14 -98 -10 -230 11 -68 11 -135 23 -149 26 -24 5 -24 6 -6 20
24 17 22 17 49 2z m6311 -4 c20 -8 11 -24 -15 -24 -10 0 -19 7 -19 15 0 16 9
19 34 9z m-8094 -39 c0 -22 -5 -35 -13 -35 -22 0 -25 10 -14 41 15 39 27 37
27 -6z m214 19 c9 -24 7 -34 -8 -34 -13 0 -26 20 -26 41 0 15 27 10 34 -7z
m5826 6 c0 -5 -2 -10 -4 -10 -3 0 -8 5 -11 10 -3 6 -1 10 4 10 6 0 11 -4 11
-10z m-2165 -10 c-3 -5 -13 -10 -21 -10 -8 0 -14 5 -14 10 0 6 9 10 21 10 11
0 17 -4 14 -10z m-4046 -34 c22 -24 33 -72 17 -78 -5 -2 -14 6 -20 16 -6 11
-19 28 -28 38 -19 19 -22 31 -11 41 11 11 18 8 42 -17z m-121 -27 c-18 -11
-32 6 -24 28 7 17 8 17 22 -1 11 -16 11 -21 2 -27z m3108 22 c110 -6 180 -14
195 -23 22 -12 14 -13 -71 -16 -52 -2 -212 4 -355 12 -417 25 -428 25 -410 6
21 -23 19 -40 -5 -40 -14 0 -20 7 -20 24 0 13 -3 32 -7 42 -6 16 10 17 248 10
140 -3 331 -10 425 -15z m343 -20 c10 -10 41 -21 71 -25 48 -6 52 -9 38 -23
-13 -13 -22 -13 -51 -4 -23 8 -42 9 -60 2 -24 -9 -27 -8 -33 14 -6 24 0 55 11
55 3 0 13 -8 24 -19z m4651 -11 c0 -5 -4 -10 -10 -10 -5 0 -10 5 -10 10 0 6 5
10 10 10 6 0 10 -4 10 -10z m-4272 -42 c17 -5 32 -16 32 -24 0 -17 -110 -20
-156 -4 -16 6 -42 11 -59 13 -38 4 -65 16 -65 29 0 12 201 1 248 -14z m2252
-4 c0 -8 -5 -12 -10 -9 -6 4 -8 11 -5 16 9 14 15 11 15 -7z m-2055 -18 c44 -8
111 -19 149 -25 79 -11 88 -17 79 -49 -4 -19 -10 -22 -27 -17 -11 4 -41 11
-65 16 -24 5 -57 16 -74 24 -16 8 -34 12 -40 8 -22 -14 -101 -3 -119 17 -40
43 -24 47 97 26z m-4001 -12 c10 -26 -4 -37 -25 -18 -10 9 -16 21 -13 25 9 15
31 10 38 -7z m-134 -16 c0 -16 -3 -19 -11 -11 -6 6 -8 16 -5 22 11 17 16 13
16 -11z m8430 2 c0 -5 -4 -10 -9 -10 -6 0 -13 5 -16 10 -3 6 1 10 9 10 9 0 16
-4 16 -10z m-90 -15 c0 -9 -9 -15 -25 -15 -24 0 -32 10 -18 23 12 13 43 7 43
-8z m-8160 -16 c7 -11 9 -23 6 -26 -8 -9 -36 17 -36 33 0 21 18 17 30 -7z
m6360 6 c0 -8 -6 -15 -14 -15 -17 0 -28 14 -19 24 12 12 33 6 33 -9z m1665 5
c-3 -5 -10 -10 -16 -10 -5 0 -9 5 -9 10 0 6 7 10 16 10 8 0 12 -4 9 -10z
m-4677 -12 c17 -17 15 -38 -3 -38 -16 0 -38 34 -28 44 9 9 18 7 31 -6z m97 3
c3 -5 1 -12 -5 -16 -5 -3 -10 1 -10 9 0 18 6 21 15 7z m4225 -15 c0 -16 -18
-31 -27 -22 -8 8 5 36 17 36 5 0 10 -6 10 -14z m-1720 -21 c0 -3 -7 -22 -15
-42 -10 -24 -19 -33 -25 -27 -11 11 15 74 31 74 5 0 9 -2 9 -5z m-166 -20 c3
-9 0 -15 -9 -15 -8 0 -15 7 -15 15 0 8 4 15 9 15 5 0 11 -7 15 -15z m106 -1
c0 -9 -7 -14 -17 -12 -25 5 -28 28 -4 28 12 0 21 -6 21 -16z m-5682 -38 c3
-13 -1 -17 -14 -14 -11 2 -20 11 -22 22 -3 13 1 17 14 14 11 -2 20 -11 22 -22z
m5657 -11 c0 -43 -29 -40 -33 3 -3 28 0 33 15 30 13 -2 18 -12 18 -33z m283
20 c5 -4 -16 -91 -26 -109 -8 -15 -32 26 -32 55 0 27 -2 28 -57 31 -55 3 -82
21 -46 32 20 5 154 -2 161 -9z m172 -5 c0 -11 -7 -20 -15 -20 -18 0 -19 12 -3
28 16 16 18 15 18 -8z m-2933 -16 c-9 -9 -28 6 -21 18 4 6 10 6 17 -1 6 -6 8
-13 4 -17z m-2928 1 c1 -2 0 -9 -4 -15 -5 -8 -23 -10 -56 -6 -62 8 -80 15 -73
28 5 8 122 2 133 -7z m5801 5 c0 -5 -7 -10 -15 -10 -8 0 -15 5 -15 10 0 6 7
10 15 10 8 0 15 -4 15 -10z m-346 -36 c4 -9 4 -19 2 -21 -8 -8 -26 8 -26 23 0
19 16 18 24 -2z m356 -24 c0 -12 -28 -25 -36 -17 -9 9 6 27 22 27 8 0 14 -5
14 -10z m1777 -34 c-4 -9 -11 -16 -17 -16 -11 0 -14 33 -3 44 11 10 26 -11 20
-28z m-10007 -1 c0 -7 -7 -18 -15 -25 -13 -10 -19 -10 -35 5 -11 10 -18 21
-15 25 7 12 65 7 65 -5z m7910 5 c13 -9 11 -14 -13 -35 -32 -28 -52 -32 -61
-10 -3 8 -14 15 -24 15 -26 0 -34 11 -21 27 13 15 97 17 119 3z m-2720 -19 c0
-5 8 -7 18 -4 10 2 24 -3 31 -11 12 -14 8 -16 -30 -13 -33 1 -45 7 -47 20 -2
10 3 17 12 17 9 0 16 -4 16 -9z m2530 -21 c0 -5 -21 -10 -46 -10 -27 0 -43 4
-39 10 3 6 24 10 46 10 21 0 39 -4 39 -10z m-3271 -49 c7 -5 11 -13 7 -19 -8
-14 -46 -3 -46 14 0 16 18 18 39 5z m3412 -41 c4 -25 5 -47 3 -49 -2 -2 -16 8
-30 22 -20 21 -25 33 -20 52 11 44 40 28 47 -25z m-3371 30 c0 -5 -4 -10 -10
-10 -5 0 -10 5 -10 10 0 6 5 10 10 10 6 0 10 -4 10 -10z m690 -13 c0 -7 14
-20 30 -29 32 -18 32 -35 2 -70 -19 -23 -29 -23 -37 0 -3 11 -22 24 -45 31
-38 11 -67 41 -53 55 4 3 22 3 40 0 29 -6 35 -3 40 15 5 21 23 20 23 -2z
m-600 1 c0 -12 -16 -17 -39 -11 -13 3 -18 9 -12 12 14 9 51 8 51 -1z m80 -22
c-13 -13 -35 7 -25 24 5 8 11 8 21 -1 10 -8 12 -15 4 -23z m210 4 c0 -5 -9
-10 -19 -10 -11 0 -23 5 -26 10 -4 6 5 10 19 10 14 0 26 -4 26 -10z m446 -10
c8 0 14 -4 14 -10 0 -5 -19 -10 -41 -10 -36 0 -40 2 -29 15 7 9 20 13 27 10 8
-3 21 -5 29 -5z m-188 -103 c2 -10 -3 -17 -11 -17 -18 0 -39 24 -30 34 12 12
38 2 41 -17z m142 9 c0 -3 -4 -8 -10 -11 -5 -3 -10 -1 -10 4 0 6 5 11 10 11 6
0 10 -2 10 -4z m40 -6 c0 -5 -4 -10 -10 -10 -5 0 -10 5 -10 10 0 6 5 10 10 10
6 0 10 -4 10 -10z m-3250 -29 c7 -14 7 -22 -1 -27 -14 -8 -43 21 -35 35 11 17
24 13 36 -8z m2908 1 c2 -7 -3 -12 -12 -12 -9 0 -16 7 -16 16 0 17 22 14 28
-4z m5167 8 c3 -5 1 -10 -4 -10 -6 0 -11 5 -11 10 0 6 2 10 4 10 3 0 8 -4 11
-10z m-10055 -34 c0 -3 -4 -8 -10 -11 -5 -3 -10 -1 -10 4 0 6 5 11 10 11 6 0
10 -2 10 -4z m104 -58 c-3 -5 -12 -4 -20 3 -7 6 -11 15 -8 21 3 5 12 4 20 -3
7 -6 11 -15 8 -21z m7535 18 c7 -9 8 -17 2 -20 -14 -9 -63 12 -56 24 9 15 41
12 54 -4z m308 -20 c-5 -17 -47 -20 -47 -3 0 20 9 26 31 20 11 -3 18 -11 16
-17z m83 -6 c-6 -11 -15 -18 -20 -15 -6 4 -9 -4 -7 -16 3 -31 -21 -35 -34 -5
-17 37 -5 56 36 56 33 0 35 -2 25 -20z m1590 -50 c0 -5 -4 -10 -10 -10 -5 0
-10 5 -10 10 0 6 5 10 10 10 6 0 10 -4 10 -10z m-2002 -34 c3 -12 -1 -17 -10
-14 -7 3 -15 13 -16 22 -3 12 1 17 10 14 7 -3 15 -13 16 -22z m2312 9 c0 -8
-7 -15 -15 -15 -8 0 -15 7 -15 15 0 8 7 15 15 15 8 0 15 -7 15 -15z m-1880
-40 c0 -8 -4 -15 -10 -15 -5 0 -10 7 -10 15 0 8 5 15 10 15 6 0 10 -7 10 -15z
m-410 -11 c0 -17 -22 -14 -28 4 -2 7 3 12 12 12 9 0 16 -7 16 -16z m300 -44
c0 -5 -7 -10 -15 -10 -8 0 -15 5 -15 10 0 6 7 10 15 10 8 0 15 -4 15 -10z
m-5947 -44 c16 -12 16 -17 5 -35 -7 -12 -16 -21 -20 -21 -13 0 -28 38 -22 54
7 19 14 20 37 2z m5667 5 c0 -6 -4 -13 -10 -16 -5 -3 -10 1 -10 9 0 9 5 16 10
16 6 0 10 -4 10 -9z m-42 -23 c5 -7 16 -48 23 -91 10 -66 10 -80 -1 -87 -21
-13 -30 -3 -30 31 0 17 -10 52 -21 79 -12 27 -19 56 -15 65 7 18 30 20 44 3z
m376 -39 c11 -57 8 -67 -14 -39 -20 25 -25 51 -13 63 13 14 21 6 27 -24z m180
5 c25 -10 8 -24 -30 -24 -32 0 -42 8 -27 23 8 9 36 9 57 1z m1636 -114 c0 -5
-4 -10 -10 -10 -5 0 -10 5 -10 10 0 6 5 10 10 10 6 0 10 -4 10 -10z m-4790
-21 c0 -5 -9 -9 -20 -9 -19 0 -26 11 -14 23 8 8 34 -3 34 -14z m-2646 -30 c14
-7 23 -16 20 -20 -8 -13 -48 -11 -62 3 -28 28 -3 37 42 17z m-168 -36 c-11
-11 -19 6 -11 24 8 17 8 17 12 0 3 -10 2 -21 -1 -24z m9317 24 c7 -19 -12
-107 -23 -107 -12 0 -40 41 -40 57 0 7 9 13 20 13 15 0 20 7 20 25 0 27 14 34
23 12z m-9208 -21 c19 -14 19 -15 1 -35 -23 -25 -39 -27 -56 -6 -10 13 -10 19
5 35 22 24 25 24 50 6z m5495 -2 c0 -11 -5 -14 -16 -10 -9 3 -18 6 -20 6 -3 0
-2 5 1 10 10 16 35 12 35 -6z m392 -33 c9 -15 15 -17 25 -9 20 16 17 -37 -3
-67 -23 -36 -40 -31 -48 13 -13 78 -1 106 26 63z m-465 -27 c-9 -9 -28 6 -21
18 4 6 10 6 17 -1 6 -6 8 -13 4 -17z m73 -5 c0 -5 -4 -9 -10 -9 -5 0 -10 7
-10 16 0 8 5 12 10 9 6 -3 10 -10 10 -16z m-5500 -30 c0 -5 -7 -9 -15 -9 -8 0
-15 7 -15 15 0 9 6 12 15 9 8 -4 15 -10 15 -15z m5478 -7 c3 -19 -1 -23 -15
-20 -10 2 -19 14 -21 26 -3 19 1 23 15 20 10 -2 19 -14 21 -26z m3646 2 c20
-8 21 -44 1 -44 -16 0 -38 34 -28 44 8 7 8 7 27 0z m-12556 -27 c4 -19 -6 -21
-27 -8 -16 10 -5 34 12 28 7 -2 13 -11 15 -20z m746 -3 c9 -22 8 -24 -9 -24
-8 0 -15 9 -15 20 0 24 15 27 24 4z m-1020 -10 c5 -14 -14 -44 -28 -44 -10 0
-27 40 -21 50 10 16 42 12 49 -6z m1471 -24 c3 -5 1 -10 -4 -10 -6 0 -11 5
-11 10 0 6 2 10 4 10 3 0 8 -4 11 -10z m2225 -15 c0 -8 -7 -15 -15 -15 -8 0
-15 7 -15 15 0 8 7 15 15 15 8 0 15 -7 15 -15z m-3610 -20 c7 -9 10 -18 7 -22
-8 -7 -37 15 -37 28 0 14 16 11 30 -6z m12744 -1 c9 -23 8 -24 -14 -24 -19 0
-27 20 -13 33 11 11 20 8 27 -9z m-12650 -16 c8 -14 4 -25 -20 -55 -35 -42
-44 -44 -56 -13 -5 15 -2 25 11 36 11 10 16 24 13 36 -4 16 0 19 18 16 13 -1
28 -11 34 -20z m886 7 c0 -8 -4 -15 -10 -15 -5 0 -10 7 -10 15 0 8 5 15 10 15
6 0 10 -7 10 -15z m9020 -9 c0 -14 -4 -27 -9 -30 -13 -9 -32 19 -25 38 10 25
34 19 34 -8z m2818 -18 c7 -7 12 -30 12 -52 0 -23 5 -48 10 -56 10 -16 -16
-54 -31 -44 -5 3 -9 1 -9 -5 0 -5 5 -13 10 -16 6 -3 10 -13 10 -21 0 -29 -35
-13 -82 39 l-49 52 15 33 c13 26 22 32 46 32 25 0 30 4 30 25 0 27 18 33 38
13z m-2854 -24 c19 -7 21 -40 4 -50 -14 -9 -38 23 -31 42 6 16 6 16 27 8z
m-6198 -61 c19 -25 18 -103 -1 -103 -20 0 -35 32 -35 73 0 49 13 60 36 30z
m7084 -21 c0 -13 -12 -22 -22 -16 -10 6 -1 24 13 24 5 0 9 -4 9 -8z m-860 -11
c0 -14 -18 -23 -30 -16 -6 4 -8 11 -5 16 8 12 35 12 35 0z m-9992 -19 c2 -7
-3 -12 -12 -12 -9 0 -16 7 -16 16 0 17 22 14 28 -4z m12572 -12 c0 -11 -4 -20
-10 -20 -5 0 -10 9 -10 20 0 11 5 20 10 20 6 0 10 -9 10 -20z m-3188 -60 c5 0
8 -10 6 -22 -4 -32 -43 -37 -51 -7 -8 28 1 42 20 35 8 -3 19 -6 25 -6z m3525
-35 c8 -22 -6 -33 -17 -15 -13 20 -12 30 0 30 6 0 13 -7 17 -15z m-12833 -11
c18 -18 19 -23 6 -44 -7 -12 -12 -12 -29 4 -24 22 -28 56 -7 56 8 0 22 -7 30
-16z m3772 5 c3 -6 1 -16 -5 -22 -13 -13 -42 0 -49 21 -5 15 44 16 54 1z
m-2468 -56 c2 -8 -5 -13 -17 -13 -21 0 -35 13 -24 24 10 10 36 3 41 -11z
m8152 -17 c0 -3 -4 -8 -10 -11 -5 -3 -10 -1 -10 4 0 6 5 11 10 11 6 0 10 -2
10 -4z m3420 -41 c0 -19 -4 -35 -9 -35 -11 0 -24 48 -16 60 13 21 25 8 25 -25z
m-13385 5 c14 -15 16 -23 7 -32 -13 -13 -42 6 -42 29 0 8 -4 11 -10 8 -5 -3
-10 -1 -10 4 0 18 36 12 55 -9z m-205 -41 c14 -25 13 -29 -9 -29 -24 0 -45 25
-37 45 7 18 33 9 46 -16z m12980 10 c0 -5 -4 -9 -10 -9 -5 0 -10 7 -10 16 0 8
5 12 10 9 6 -3 10 -10 10 -16z m690 -41 c0 -15 -28 -8 -34 8 -10 26 5 39 21
19 7 -11 13 -22 13 -27z m-13480 -51 c0 -8 -3 -17 -6 -20 -10 -9 -46 12 -39
24 9 14 45 11 45 -4z m13450 -34 c0 -7 -5 -13 -10 -13 -6 0 -8 -11 -4 -25 7
-28 -12 -35 -19 -7 -22 79 -17 104 14 76 10 -9 19 -23 19 -31z m30 -29 c0 -8
-4 -12 -10 -9 -5 3 -10 13 -10 21 0 8 5 12 10 9 6 -3 10 -13 10 -21z m-2 -52
c2 -7 -3 -12 -12 -12 -9 0 -16 7 -16 16 0 17 22 14 28 -4z m-2753 -93 c7 -70
2 -96 -15 -70 -12 21 -22 98 -15 121 12 38 23 20 30 -51z m-10745 51 c0 -5 -4
-10 -10 -10 -5 0 -10 5 -10 10 0 6 5 10 10 10 6 0 10 -4 10 -10z m12650 -16
c0 -8 -5 -12 -10 -9 -6 4 -8 11 -5 16 9 14 15 11 15 -7z m-1890 -195 c0 -11
-4 -17 -10 -14 -5 3 -10 15 -10 26 0 11 5 17 10 14 6 -3 10 -15 10 -26z
m-10240 -19 c0 -5 -4 -10 -10 -10 -5 0 -10 5 -10 10 0 6 5 10 10 10 6 0 10 -4
10 -10z m13144 -26 c4 -9 4 -19 2 -21 -8 -8 -26 8 -26 23 0 19 16 18 24 -2z
m-13635 -18 c7 -5 11 -15 9 -24 -4 -23 -128 -27 -128 -4 0 34 79 52 119 28z
m10321 -46 c0 -12 -28 -70 -34 -70 -12 0 -11 42 1 59 15 22 33 28 33 11z m450
-115 c0 -28 -15 -34 -24 -9 -10 25 -7 34 9 34 9 0 15 -9 15 -25z m2660 -106
c0 -5 -4 -9 -10 -9 -5 0 -10 7 -10 16 0 8 5 12 10 9 6 -3 10 -10 10 -16z"/>
<path d="M5242 8730 c0 -14 2 -19 5 -12 2 6 2 18 0 25 -3 6 -5 1 -5 -13z"/>
<path d="M9501 5544 c0 -11 3 -14 6 -6 3 7 2 16 -1 19 -3 4 -6 -2 -5 -13z"/>
<path d="M5615 4639 c-10 -15 1 -22 24 -14 12 3 19 11 16 16 -8 12 -32 11 -40
-2z"/>
<path d="M10246 3896 c8 -20 54 -50 54 -35 0 11 -39 48 -52 49 -4 0 -5 -6 -2
-14z"/>
<path d="M2597 3507 c-6 -15 10 -37 26 -37 12 0 4 43 -9 47 -6 2 -14 -3 -17
-10z"/>
<path d="M9880 8514 c0 -6 9 -19 19 -28 19 -17 20 -17 31 3 8 16 17 20 35 15
14 -4 25 -2 25 4 0 6 -25 12 -55 14 -35 2 -55 -1 -55 -8z"/>
<path d="M9870 8401 c0 -6 5 -13 10 -16 6 -3 10 1 10 9 0 9 -4 16 -10 16 -5 0
-10 -4 -10 -9z"/>
<path d="M6782 6000 c8 -22 483 -538 491 -533 4 2 91 98 193 211 166 186 184
210 178 235 -4 20 -2 27 10 27 8 0 18 -5 21 -10 5 -8 11 -7 21 1 22 18 17 26
-22 33 -19 4 -41 9 -49 12 -8 3 -12 -1 -12 -13 1 -10 -2 -17 -8 -16 -64 9
-380 26 -525 27 -102 0 -190 4 -197 9 -18 11 -104 26 -101 17z m584 -357 c-3
-20 -22 -28 -31 -14 -8 14 3 31 20 31 7 0 12 -8 11 -17z"/>
<path d="M5910 3570 c0 -10 39 -34 46 -27 3 2 2 12 -2 21 -7 17 -44 23 -44 6z"/>
<path d="M5100 2030 c-12 -22 -26 -120 -18 -120 5 0 74 96 92 128 5 9 -3 12
-28 12 -25 0 -38 -6 -46 -20z"/>
</g>
</svg>
